<svg width="171" height="40" viewBox="0 0 171 40" fill="none" xmlns="http://www.w3.org/2000/svg">
<g clip-path="url(#clip0_338_158)">
<path d="M55.8284 10.5714H51.8856V7.2H58.1713L61.5427 4.68571H48.6855V19.7143H55.4284C59.1998 19.7143 61.3713 18 61.3713 14.9714C61.3713 11.9429 59.3713 10.5714 55.8284 10.5714ZM55.257 17.2571H51.8856V13.0857H55.257C57.3141 13.0857 58.2284 13.7714 58.2284 15.1429C58.2284 16.5143 57.257 17.2571 55.257 17.2571Z" fill="#111640"/>
<path d="M84.8001 4.74284H78.6287V19.7714H81.8287V15.4857H84.7429C88.6858 15.4857 91.0858 13.4286 91.0858 10.0571C91.1429 6.79999 88.6858 4.74284 84.8001 4.74284ZM84.7429 13.0286H81.8858V7.19999H84.7429C86.8001 7.19999 87.9429 8.22856 87.9429 10.1143C87.9429 12 86.8001 13.0286 84.7429 13.0286Z" fill="#111640"/>
<path d="M43.1428 16.5143C42.3428 16.9714 41.3714 17.2 40.3428 17.2C37.4285 17.2 35.3142 15.0857 35.3142 12.2286C35.3142 9.37142 37.4285 7.25713 40.3428 7.25713C41.4285 7.25713 42.4 7.54285 43.2571 8.17142L45.5428 6.45713L45.3714 6.34285C44 5.14285 42.2285 4.51427 40.1714 4.51427C37.9428 4.51427 35.8857 5.25713 34.4571 6.62856C32.9714 7.99999 32.1714 9.94285 32.1714 12.1143C32.1714 14.2857 32.9714 16.2857 34.4 17.7143C35.8285 19.1428 37.8857 19.9428 40.1142 19.9428C42.3428 19.9428 44.4571 19.1428 45.8285 17.6571C44.7428 16.8571 43.7714 16.1143 43.7714 16.1143L43.1428 16.5143Z" fill="#111640"/>
<path d="M72.2856 7.2L75.6571 4.68571H64.3428V19.7143H75.6571V17.2H67.5999V13.3714H74.4571V10.8571H67.5999V7.2H72.2856Z" fill="#111640"/>
<path d="M45.9428 28.3429L41.1428 36.3429H39.7714L34.8571 28.4571V39.6571H32.1714V24.6286H35.5428L40.5714 32.8L45.4857 24.6286H48.6285V39.6571H45.9428V28.3429Z" fill="#111640"/>
<path d="M59.8286 24.6286L66.0001 39.6571H63.1429L61.7143 36.1143H54.8572L53.4286 39.6571H50.7429L56.8001 24.6286H59.8286ZM55.7715 33.6H60.6858L58.2286 27.4286L55.7715 33.6Z" fill="#111640"/>
<path d="M70.7428 34.9714V39.6571H68.0571V24.6286H73.0286C77.7714 24.6286 79.7714 26.3429 79.7714 29.7143C79.7714 33.0857 77.4286 34.9714 73.0286 34.9714H70.7428ZM70.7428 27.0857V32.5143H73.2571C75.7143 32.5143 77.0286 31.7143 77.0286 29.6571C77.0286 27.8286 75.9428 27.0857 73.3143 27.0857H70.7428Z" fill="#111640"/>
<path d="M85.3713 39.6571H82.6855V24.6286H85.3713V30.9714H87.5998L92.3998 24.6286H95.657L89.9427 31.7714L96.5713 39.6571H93.1427L87.7141 33.1429H85.3713V39.6571Z" fill="#111640"/>
<path d="M108.228 33.1429H101.371V37.2H109.257V39.6571H98.6855V24.6286H109.028V27.0857H101.371V30.6857H108.228V33.1429Z" fill="#111640"/>
<path d="M123.486 27.0857H118.457V39.6571H115.771V27.0857H110.857V24.6286H123.486V27.0857Z" fill="#111640"/>
<path d="M128.4 35.8286L136.571 24.6286H139.486V39.6571H136.8V28.2286L128.629 39.6571H125.771V24.6286H128.457V35.8286H128.4Z" fill="#111640"/>
<path d="M154.171 33.1429H146V39.6571H143.314V24.6286H146V30.6857H154.171V24.6286H156.857V39.6571H154.171V33.1429Z" fill="#111640"/>
<path d="M170.857 27.0857H163.371V39.6571H160.686V24.6286H170.857V27.0857Z" fill="#111640"/>
<path d="M7.71436 8.97142V12.4571L12.4572 15.3714L23.7715 7.14284C23.3715 6.2857 22.8572 5.4857 22.2286 4.74284L12.4001 11.8857L7.71436 8.97142Z" fill="#111640"/>
<path d="M24.8571 12.2286C24.8571 11.4857 24.8 10.7429 24.6857 10.0571L22 12C22 12.0571 22 12.1714 22 12.2286C22 14.9143 20.8571 17.3143 19.0286 19.0286C17.3143 20.6286 15.0286 21.6 12.4571 21.6C9.71429 21.6 7.31429 20.4571 5.54286 18.6857C3.88571 17.0286 2.85714 14.7429 2.85714 12.2286C2.85714 9.54286 4 7.14286 5.82857 5.42857C7.54286 3.82857 9.82857 2.85714 12.4 2.85714C14.4 2.85714 16.2286 3.48571 17.7714 4.51429L20.1714 2.74286C18.2286 1.14286 15.7714 0.171429 13.0286 0C12.8 0 12.6286 0 12.4 0C9.2 0 6.28571 1.2 4.11429 3.14286C3.94286 3.25714 3.82857 3.42857 3.65714 3.54286C3.65714 3.54286 3.6 3.54286 3.6 3.6C1.54286 5.65714 0.171429 8.45714 0 11.6C0 11.8286 0 12 0 12.2286C0 15.3714 1.2 18.2857 3.2 20.4571C3.31429 20.6286 3.48571 20.7429 3.6 20.9143C5.71429 22.9714 8.57143 24.3429 11.7714 24.4571C11.9429 24.4571 12.1714 24.4571 12.3429 24.4571H12.4C15.6 24.4571 18.5143 23.2571 20.7429 21.3143C20.9143 21.2 21.0286 21.0286 21.1429 20.9143C23.4286 18.6286 24.8571 15.6 24.8571 12.2286Z" fill="#111640"/>
</g>
<defs>
<clipPath id="clip0_338_158">
<rect width="170.857" height="40" fill="white"/>
</clipPath>
</defs>
</svg>
