<svg width="460" height="241" viewBox="0 0 460 241" fill="none" xmlns="http://www.w3.org/2000/svg">
<g clip-path="url(#clip0_820_134)">
<rect width="460" height="217" fill="white"/>
<rect y="113" width="97" height="104" rx="8" fill="#5FAF2D"/>
<rect y="113" width="97" height="104" rx="8" fill="url(#paint0_linear_820_134)"/>
<path d="M37.6998 161.756L41.063 160.143H41.856V170H40.6802V161.64L38.1509 162.802L37.6998 161.756ZM44.3437 165.099C44.3437 164.365 44.4281 163.695 44.5967 163.089C44.7699 162.483 45.0228 161.954 45.3555 161.503C45.6927 161.052 46.1279 160.701 46.6611 160.45C47.1943 160.2 47.8073 160.074 48.5 160.074C49.4297 160.074 50.209 160.282 50.8379 160.696C51.4714 161.106 51.9362 161.683 52.2324 162.426C52.5286 163.164 52.6768 164.055 52.6768 165.099C52.6768 165.837 52.5924 166.509 52.4238 167.115C52.2598 167.717 52.0114 168.243 51.6787 168.694C51.346 169.146 50.9108 169.496 50.373 169.747C49.8398 169.998 49.2246 170.123 48.5273 170.123C47.6478 170.123 46.889 169.904 46.251 169.467C45.613 169.029 45.1344 168.437 44.8154 167.689C44.501 166.938 44.3437 166.074 44.3437 165.099ZM45.5742 165.099C45.5742 166.288 45.8363 167.225 46.3603 167.908C46.889 168.592 47.6113 168.934 48.5273 168.934C49.5117 168.934 50.2432 168.601 50.7217 167.936C51.2002 167.27 51.4395 166.325 51.4395 165.099C51.4395 163.873 51.1956 162.927 50.708 162.262C50.2204 161.596 49.4844 161.264 48.5 161.264C47.5247 161.264 46.7933 161.601 46.3057 162.275C45.818 162.945 45.5742 163.886 45.5742 165.099ZM53.8588 161.756L57.2221 160.143H58.0151V170H56.8393V161.64L54.31 162.802L53.8588 161.756Z" fill="white"/>
<rect x="121" y="53" width="97" height="164" rx="8" fill="#368B00"/>
<rect x="121" y="53" width="97" height="164" rx="8" fill="url(#paint1_linear_820_134)"/>
<path d="M157.462 131.756L160.826 130.143H161.619V140H160.443V131.64L157.914 132.802L157.462 131.756ZM164.106 135.099C164.106 134.365 164.191 133.695 164.359 133.089C164.533 132.483 164.785 131.954 165.118 131.503C165.455 131.052 165.891 130.701 166.424 130.45C166.957 130.2 167.57 130.074 168.263 130.074C169.192 130.074 169.972 130.282 170.601 130.696C171.234 131.106 171.699 131.683 171.995 132.426C172.291 133.164 172.439 134.055 172.439 135.099C172.439 135.837 172.355 136.509 172.187 137.115C172.022 137.717 171.774 138.243 171.441 138.694C171.109 139.146 170.674 139.496 170.136 139.747C169.603 139.998 168.987 140.123 168.29 140.123C167.41 140.123 166.652 139.904 166.014 139.467C165.376 139.029 164.897 138.437 164.578 137.689C164.264 136.938 164.106 136.074 164.106 135.099ZM165.337 135.099C165.337 136.288 165.599 137.225 166.123 137.908C166.652 138.592 167.374 138.934 168.29 138.934C169.274 138.934 170.006 138.601 170.484 137.936C170.963 137.27 171.202 136.325 171.202 135.099C171.202 133.873 170.958 132.927 170.471 132.262C169.983 131.596 169.247 131.264 168.263 131.264C167.287 131.264 166.556 131.601 166.068 132.275C165.581 132.945 165.337 133.886 165.337 135.099ZM173.861 131.387V130.197H181.291V130.997L176.424 140H175.091L179.794 131.387H173.861Z" fill="white"/>
<rect x="242" width="97" height="217" rx="8" fill="#003E14"/>
<rect x="242" width="97" height="217" rx="8" fill="url(#paint2_linear_820_134)"/>
<rect x="242" width="97" height="217" rx="8" fill="url(#paint3_linear_820_134)"/>
<path d="M280.171 105.256L283.535 103.643H284.328V113.5H283.152V105.14L280.623 106.302L280.171 105.256ZM286.255 105.256L289.618 103.643H290.411V113.5H289.235V105.14L286.706 106.302L286.255 105.256ZM294.088 106.931L292.995 106.568C293.081 106.149 293.222 105.764 293.418 105.413C293.614 105.058 293.863 104.741 294.164 104.463C294.469 104.185 294.843 103.968 295.285 103.813C295.727 103.654 296.214 103.574 296.747 103.574C297.759 103.574 298.552 103.845 299.126 104.388C299.705 104.93 299.995 105.643 299.995 106.527C299.995 106.865 299.949 107.197 299.858 107.525C299.767 107.849 299.648 108.145 299.502 108.414C299.361 108.683 299.179 108.954 298.956 109.228C298.732 109.496 298.511 109.736 298.292 109.945C298.078 110.155 297.828 110.371 297.54 110.595C297.258 110.813 297.003 111 296.775 111.155C296.552 111.306 296.301 111.467 296.023 111.641L294.943 112.311H300.364V113.5H292.728V112.522L294.861 111.107C296.264 110.178 297.265 109.371 297.862 108.688C298.463 108.004 298.764 107.327 298.764 106.657C298.764 106.001 298.573 105.522 298.19 105.222C297.807 104.916 297.299 104.764 296.665 104.764C296.269 104.764 295.909 104.83 295.585 104.962C295.266 105.09 295.007 105.263 294.806 105.481C294.606 105.696 294.446 105.926 294.328 106.172C294.209 106.413 294.129 106.666 294.088 106.931Z" fill="white"/>
<rect x="363" y="29" width="97" height="188" rx="8" fill="black"/>
<rect x="363" y="29" width="97" height="188" rx="8" fill="url(#paint4_linear_820_134)"/>
<path d="M392.716 104.867L398.235 102.148H400.181V119H397.497V105.512L393.77 107.188L392.716 104.867ZM403.379 104.867L408.898 102.148H410.844V119H408.16V105.512L404.434 107.188L403.379 104.867ZM414.886 110.598C414.886 109.316 415.038 108.152 415.343 107.105C415.648 106.051 416.093 105.137 416.679 104.363C417.273 103.59 418.034 102.988 418.964 102.559C419.894 102.129 420.956 101.914 422.151 101.914C424.542 101.914 426.358 102.688 427.601 104.234C428.851 105.781 429.476 107.902 429.476 110.598C429.476 111.879 429.323 113.047 429.019 114.102C428.714 115.148 428.265 116.062 427.671 116.844C427.085 117.617 426.327 118.219 425.398 118.648C424.468 119.078 423.405 119.293 422.21 119.293C420.663 119.293 419.331 118.918 418.214 118.168C417.097 117.418 416.261 116.395 415.706 115.098C415.159 113.801 414.886 112.301 414.886 110.598ZM417.722 110.598C417.722 112.488 418.112 113.953 418.894 114.992C419.675 116.031 420.78 116.551 422.21 116.551C423.741 116.551 424.862 116.047 425.573 115.039C426.284 114.023 426.64 112.543 426.64 110.598C426.64 108.645 426.276 107.164 425.55 106.156C424.831 105.148 423.698 104.645 422.151 104.645C420.659 104.645 419.546 105.16 418.812 106.191C418.085 107.215 417.722 108.684 417.722 110.598Z" fill="white"/>
<path d="M395.29 136.632V135.89H399.499V136.632H395.29ZM402.077 134.308L401.296 134.049C401.358 133.749 401.458 133.474 401.598 133.224C401.738 132.97 401.916 132.743 402.131 132.545C402.349 132.346 402.616 132.192 402.931 132.081C403.247 131.967 403.596 131.91 403.976 131.91C404.699 131.91 405.265 132.104 405.676 132.491C406.089 132.879 406.296 133.388 406.296 134.02C406.296 134.26 406.263 134.498 406.198 134.732C406.133 134.964 406.048 135.175 405.944 135.367C405.843 135.559 405.713 135.753 405.554 135.948C405.394 136.14 405.236 136.311 405.08 136.461C404.927 136.611 404.748 136.765 404.543 136.925C404.341 137.081 404.159 137.215 403.996 137.325C403.836 137.433 403.657 137.548 403.459 137.672L402.687 138.15H406.559V139H401.105V138.302L402.629 137.291C403.631 136.627 404.346 136.051 404.772 135.562C405.202 135.074 405.417 134.591 405.417 134.112C405.417 133.644 405.28 133.302 405.007 133.087C404.733 132.869 404.37 132.76 403.918 132.76C403.635 132.76 403.377 132.807 403.146 132.901C402.918 132.993 402.733 133.116 402.59 133.272C402.446 133.425 402.332 133.59 402.248 133.766C402.163 133.938 402.106 134.119 402.077 134.308ZM415.104 139V134.591H412.164V139H411.324V133.8H415.943V139H415.104ZM417.642 138.429C417.642 138.285 417.701 138.157 417.818 138.043C417.935 137.929 418.083 137.872 418.262 137.872C418.432 137.872 418.573 137.931 418.687 138.048C418.804 138.162 418.863 138.289 418.863 138.429C418.863 138.588 418.806 138.727 418.692 138.844C418.578 138.961 418.435 139.02 418.262 139.02C418.083 139.02 417.935 138.961 417.818 138.844C417.701 138.727 417.642 138.588 417.642 138.429ZM424.341 139V134.591H421.402V139H420.562V133.8H425.181V139H424.341ZM426.88 138.429C426.88 138.285 426.938 138.157 427.055 138.043C427.173 137.929 427.321 137.872 427.5 137.872C427.669 137.872 427.811 137.931 427.925 138.048C428.042 138.162 428.1 138.289 428.1 138.429C428.1 138.588 428.043 138.727 427.929 138.844C427.816 138.961 427.672 139.02 427.5 139.02C427.321 139.02 427.173 138.961 427.055 138.844C426.938 138.727 426.88 138.588 426.88 138.429Z" fill="white"/>
</g>
<rect x="4.5" y="226" width="14" height="14" rx="2" fill="#5FAF2D"/>
<rect x="4.5" y="226" width="14" height="14" rx="2" fill="url(#paint5_linear_820_134)"/>
<path d="M23.7877 237V229.998H24.6471V237H23.7877ZM27.3713 237V229.998H28.2307V237H27.3713ZM30.9549 237V229.998H31.8143V237H30.9549ZM37.3799 237V231.8H38.2197V234.129L40.7979 231.8H41.9795L39.2891 234.192L42.1113 237H40.9297L38.6494 234.71L38.2197 235.11V237H37.3799ZM43.4146 237V231.8H45.5729C46.3085 231.8 46.8473 231.901 47.1891 232.103C47.5309 232.304 47.7018 232.646 47.7018 233.128C47.7018 233.385 47.6236 233.619 47.4674 233.831C47.3111 234.039 47.0995 234.183 46.8326 234.261C47.1712 234.336 47.4283 234.482 47.6041 234.7C47.7831 234.918 47.8727 235.188 47.8727 235.511C47.8727 235.996 47.6887 236.365 47.3209 236.619C46.9531 236.873 46.4241 237 45.734 237H43.4146ZM45.7438 234.739H44.2545V236.209H45.6461C46.0986 236.209 46.4355 236.15 46.6568 236.033C46.8814 235.916 46.9938 235.732 46.9938 235.481C46.9938 235.218 46.8928 235.029 46.691 234.915C46.4892 234.798 46.1734 234.739 45.7438 234.739ZM45.5436 232.591H44.2545V233.948H45.8316C46.1474 233.948 46.3915 233.888 46.5641 233.768C46.7366 233.647 46.8229 233.471 46.8229 233.24C46.8229 233.107 46.7919 232.996 46.7301 232.908C46.6715 232.82 46.5803 232.754 46.4566 232.708C46.3362 232.662 46.2044 232.632 46.0611 232.615C45.9212 232.599 45.7486 232.591 45.5436 232.591ZM50.1135 233.411L49.3566 233.128C49.5227 232.675 49.8042 232.327 50.2014 232.083C50.5985 231.836 51.077 231.712 51.6369 231.712C53.0497 231.712 53.7561 232.451 53.7561 233.929V237H52.9162V236.102C52.7795 236.385 52.5305 236.621 52.1691 236.81C51.8111 236.995 51.4237 237.088 51.007 237.088C50.4667 237.088 50.0288 236.946 49.6936 236.663C49.3615 236.377 49.1955 236.002 49.1955 235.54C49.1955 234.944 49.4787 234.523 50.0451 234.275C50.6115 234.025 51.5686 233.899 52.9162 233.899C52.9162 233.418 52.8104 233.064 52.5988 232.84C52.3905 232.612 52.0633 232.498 51.6174 232.498C50.8264 232.498 50.3251 232.802 50.1135 233.411ZM51.173 236.302C51.6841 236.302 52.1024 236.16 52.4279 235.877C52.7535 235.59 52.9162 235.224 52.9162 234.778V234.588C52.1936 234.588 51.6288 234.619 51.2219 234.681C50.815 234.743 50.522 234.842 50.343 234.979C50.1639 235.112 50.0744 235.299 50.0744 235.54C50.0744 235.774 50.1721 235.96 50.3674 236.097C50.566 236.233 50.8345 236.302 51.173 236.302ZM58.3797 237.088C57.5073 237.088 56.8742 236.795 56.4803 236.209V239.002H55.6404V231.8H56.4803V232.732C56.6626 232.413 56.9197 232.164 57.2518 231.985C57.5838 231.803 57.9826 231.712 58.448 231.712C59.174 231.712 59.7729 231.953 60.2449 232.435C60.7202 232.913 60.9578 233.554 60.9578 234.358C60.9578 235.169 60.7186 235.826 60.24 236.331C59.7615 236.836 59.1414 237.088 58.3797 237.088ZM58.3113 236.302C58.8419 236.302 59.2684 236.128 59.5906 235.779C59.9161 235.428 60.0789 234.961 60.0789 234.378C60.0789 233.805 59.9129 233.349 59.5809 233.011C59.2488 232.669 58.8159 232.498 58.282 232.498C57.7319 232.498 57.2941 232.661 56.9686 232.986C56.643 233.312 56.4803 233.756 56.4803 234.319V234.51C56.4803 235.089 56.6512 235.534 56.993 235.843C57.338 236.149 57.7775 236.302 58.3113 236.302ZM61.8363 232.591V231.8H66.475V232.591H64.5658V237H63.726V232.591H61.8363ZM68.2861 233.411L67.5293 233.128C67.6953 232.675 67.9769 232.327 68.374 232.083C68.7712 231.836 69.2497 231.712 69.8096 231.712C71.2223 231.712 71.9287 232.451 71.9287 233.929V237H71.0889V236.102C70.9521 236.385 70.7031 236.621 70.3418 236.81C69.9837 236.995 69.5964 237.088 69.1797 237.088C68.6393 237.088 68.2015 236.946 67.8662 236.663C67.5342 236.377 67.3682 236.002 67.3682 235.54C67.3682 234.944 67.6514 234.523 68.2178 234.275C68.7842 234.025 69.7412 233.899 71.0889 233.899C71.0889 233.418 70.9831 233.064 70.7715 232.84C70.5632 232.612 70.236 232.498 69.79 232.498C68.999 232.498 68.4977 232.802 68.2861 233.411ZM69.3457 236.302C69.8568 236.302 70.2751 236.16 70.6006 235.877C70.9261 235.59 71.0889 235.224 71.0889 234.778V234.588C70.3662 234.588 69.8014 234.619 69.3945 234.681C68.9876 234.743 68.6947 234.842 68.5156 234.979C68.3366 235.112 68.2471 235.299 68.2471 235.54C68.2471 235.774 68.3447 235.96 68.54 236.097C68.7386 236.233 69.0072 236.302 69.3457 236.302ZM77.4313 237V232.591H75.19V232.898C75.19 234.324 75.0468 235.379 74.7604 236.062C74.4739 236.746 74.0279 237.088 73.4225 237.088C73.3411 237.088 73.2548 237.081 73.1637 237.068V236.258C73.1962 236.264 73.263 236.268 73.3639 236.268C73.7122 236.268 73.971 236.001 74.1402 235.467C74.3095 234.933 74.3941 234.077 74.3941 232.898V231.8H78.2711V237H77.4313ZM83.9588 232.308L83.1775 232.049C83.2394 231.749 83.3403 231.474 83.4803 231.224C83.6202 230.97 83.7977 230.743 84.0125 230.545C84.2306 230.346 84.4975 230.192 84.8133 230.081C85.129 229.967 85.4773 229.91 85.8582 229.91C86.5809 229.91 87.1473 230.104 87.5574 230.491C87.9708 230.879 88.1775 231.388 88.1775 232.02C88.1775 232.26 88.145 232.498 88.0799 232.732C88.0148 232.964 87.9301 233.175 87.826 233.367C87.7251 233.559 87.5949 233.753 87.4354 233.948C87.2758 234.14 87.118 234.311 86.9617 234.461C86.8087 234.611 86.6297 234.765 86.4246 234.925C86.2228 235.081 86.0405 235.215 85.8777 235.325C85.7182 235.433 85.5392 235.548 85.3406 235.672L84.5691 236.15H88.4412V237H82.9871V236.302L84.5105 235.291C85.5132 234.627 86.2277 234.051 86.6541 233.562C87.0838 233.074 87.2986 232.591 87.2986 232.112C87.2986 231.644 87.1619 231.302 86.8885 231.087C86.615 230.869 86.2521 230.76 85.7996 230.76C85.5164 230.76 85.2592 230.807 85.0281 230.901C84.8003 230.993 84.6147 231.116 84.4715 231.272C84.3283 231.425 84.2143 231.59 84.1297 231.766C84.0451 231.938 83.9881 232.119 83.9588 232.308ZM90.3207 232.039L89.5736 231.702C89.7689 231.155 90.101 230.721 90.5697 230.398C91.0385 230.073 91.6358 229.91 92.3617 229.91C93.0583 229.91 93.6247 230.07 94.0609 230.389C94.5004 230.708 94.7201 231.134 94.7201 231.668C94.7201 232.078 94.6143 232.426 94.4027 232.713C94.1944 232.996 93.8917 233.195 93.4945 233.309C93.6736 233.322 93.8428 233.364 94.0023 233.436C94.1618 233.507 94.3083 233.608 94.4418 233.738C94.5785 233.868 94.6859 234.041 94.7641 234.256C94.8422 234.467 94.8812 234.708 94.8812 234.979C94.8812 235.639 94.642 236.157 94.1635 236.531C93.685 236.902 93.0714 237.088 92.3227 237.088C91.5577 237.088 90.9197 236.919 90.4086 236.58C89.9008 236.238 89.559 235.781 89.3832 235.208L90.1937 234.861C90.2914 235.063 90.3972 235.241 90.5111 235.394C90.6251 235.543 90.7667 235.687 90.9359 235.823C91.1085 235.957 91.3152 236.059 91.5561 236.131C91.8002 236.202 92.0753 236.238 92.3812 236.238C92.8858 236.238 93.2813 236.129 93.5678 235.911C93.8575 235.693 94.0023 235.385 94.0023 234.988C94.0023 234.217 93.3887 233.831 92.1615 233.831H91.3803V233.001H92.0004C92.5635 233.001 93.0111 232.892 93.3432 232.674C93.6752 232.456 93.8412 232.177 93.8412 231.839C93.8412 231.491 93.7061 231.224 93.4359 231.038C93.1658 230.853 92.7947 230.76 92.3227 230.76C91.7953 230.76 91.364 230.883 91.0287 231.131C90.6934 231.375 90.4574 231.678 90.3207 232.039Z" fill="black"/>
<rect x="127.5" y="226" width="14" height="14" rx="2" fill="#368B00"/>
<rect x="127.5" y="226" width="14" height="14" rx="2" fill="url(#paint6_linear_820_134)"/>
<path d="M146.709 237V229.998H147.569V237H146.709ZM156.001 229.998L153.003 237H152.339L149.18 229.998H150.161L152.69 235.721L155.049 229.998H156.001ZM160.458 237V231.8H161.298V234.129L163.876 231.8H165.058L162.367 234.192L165.19 237H164.008L161.728 234.71L161.298 235.11V237H160.458ZM166.493 237V231.8H168.651C169.387 231.8 169.926 231.901 170.267 232.103C170.609 232.304 170.78 232.646 170.78 233.128C170.78 233.385 170.702 233.619 170.546 233.831C170.389 234.039 170.178 234.183 169.911 234.261C170.249 234.336 170.507 234.482 170.682 234.7C170.861 234.918 170.951 235.188 170.951 235.511C170.951 235.996 170.767 236.365 170.399 236.619C170.031 236.873 169.502 237 168.812 237H166.493ZM168.822 234.739H167.333V236.209H168.724C169.177 236.209 169.514 236.15 169.735 236.033C169.96 235.916 170.072 235.732 170.072 235.481C170.072 235.218 169.971 235.029 169.769 234.915C169.568 234.798 169.252 234.739 168.822 234.739ZM168.622 232.591H167.333V233.948H168.91C169.226 233.948 169.47 233.888 169.642 233.768C169.815 233.647 169.901 233.471 169.901 233.24C169.901 233.107 169.87 232.996 169.808 232.908C169.75 232.82 169.659 232.754 169.535 232.708C169.415 232.662 169.283 232.632 169.139 232.615C168.999 232.599 168.827 232.591 168.622 232.591ZM173.192 233.411L172.435 233.128C172.601 232.675 172.883 232.327 173.28 232.083C173.677 231.836 174.155 231.712 174.715 231.712C176.128 231.712 176.834 232.451 176.834 233.929V237H175.995V236.102C175.858 236.385 175.609 236.621 175.247 236.81C174.889 236.995 174.502 237.088 174.085 237.088C173.545 237.088 173.107 236.946 172.772 236.663C172.44 236.377 172.274 236.002 172.274 235.54C172.274 234.944 172.557 234.523 173.123 234.275C173.69 234.025 174.647 233.899 175.995 233.899C175.995 233.418 175.889 233.064 175.677 232.84C175.469 232.612 175.142 232.498 174.696 232.498C173.905 232.498 173.403 232.802 173.192 233.411ZM174.251 236.302C174.762 236.302 175.181 236.16 175.506 235.877C175.832 235.59 175.995 235.224 175.995 234.778V234.588C175.272 234.588 174.707 234.619 174.3 234.681C173.893 234.743 173.6 234.842 173.421 234.979C173.242 235.112 173.153 235.299 173.153 235.54C173.153 235.774 173.25 235.96 173.446 236.097C173.644 236.233 173.913 236.302 174.251 236.302ZM181.458 237.088C180.586 237.088 179.952 236.795 179.559 236.209V239.002H178.719V231.8H179.559V232.732C179.741 232.413 179.998 232.164 180.33 231.985C180.662 231.803 181.061 231.712 181.526 231.712C182.252 231.712 182.851 231.953 183.323 232.435C183.799 232.913 184.036 233.554 184.036 234.358C184.036 235.169 183.797 235.826 183.318 236.331C182.84 236.836 182.22 237.088 181.458 237.088ZM181.39 236.302C181.92 236.302 182.347 236.128 182.669 235.779C182.994 235.428 183.157 234.961 183.157 234.378C183.157 233.805 182.991 233.349 182.659 233.011C182.327 232.669 181.894 232.498 181.36 232.498C180.81 232.498 180.372 232.661 180.047 232.986C179.721 233.312 179.559 233.756 179.559 234.319V234.51C179.559 235.089 179.729 235.534 180.071 235.843C180.416 236.149 180.856 236.302 181.39 236.302ZM184.915 232.591V231.8H189.553V232.591H187.644V237H186.804V232.591H184.915ZM191.364 233.411L190.608 233.128C190.774 232.675 191.055 232.327 191.452 232.083C191.849 231.836 192.328 231.712 192.888 231.712C194.301 231.712 195.007 232.451 195.007 233.929V237H194.167V236.102C194.03 236.385 193.781 236.621 193.42 236.81C193.062 236.995 192.675 237.088 192.258 237.088C191.718 237.088 191.28 236.946 190.945 236.663C190.612 236.377 190.446 236.002 190.446 235.54C190.446 234.944 190.73 234.523 191.296 234.275C191.862 234.025 192.82 233.899 194.167 233.899C194.167 233.418 194.061 233.064 193.85 232.84C193.641 232.612 193.314 232.498 192.868 232.498C192.077 232.498 191.576 232.802 191.364 233.411ZM192.424 236.302C192.935 236.302 193.353 236.16 193.679 235.877C194.004 235.59 194.167 235.224 194.167 234.778V234.588C193.445 234.588 192.88 234.619 192.473 234.681C192.066 234.743 191.773 234.842 191.594 234.979C191.415 235.112 191.325 235.299 191.325 235.54C191.325 235.774 191.423 235.96 191.618 236.097C191.817 236.233 192.085 236.302 192.424 236.302ZM200.51 237V232.591H198.268V232.898C198.268 234.324 198.125 235.379 197.839 236.062C197.552 236.746 197.106 237.088 196.501 237.088C196.419 237.088 196.333 237.081 196.242 237.068V236.258C196.275 236.264 196.341 236.268 196.442 236.268C196.79 236.268 197.049 236.001 197.219 235.467C197.388 234.933 197.472 234.077 197.472 232.898V231.8H201.349V237H200.51ZM207.037 232.308L206.256 232.049C206.318 231.749 206.419 231.474 206.559 231.224C206.699 230.97 206.876 230.743 207.091 230.545C207.309 230.346 207.576 230.192 207.892 230.081C208.207 229.967 208.556 229.91 208.937 229.91C209.659 229.91 210.226 230.104 210.636 230.491C211.049 230.879 211.256 231.388 211.256 232.02C211.256 232.26 211.223 232.498 211.158 232.732C211.093 232.964 211.008 233.175 210.904 233.367C210.803 233.559 210.673 233.753 210.514 233.948C210.354 234.14 210.196 234.311 210.04 234.461C209.887 234.611 209.708 234.765 209.503 234.925C209.301 235.081 209.119 235.215 208.956 235.325C208.797 235.433 208.618 235.548 208.419 235.672L207.647 236.15H211.52V237H206.065V236.302L207.589 235.291C208.591 234.627 209.306 234.051 209.732 233.562C210.162 233.074 210.377 232.591 210.377 232.112C210.377 231.644 210.24 231.302 209.967 231.087C209.693 230.869 209.33 230.76 208.878 230.76C208.595 230.76 208.338 230.807 208.106 230.901C207.879 230.993 207.693 231.116 207.55 231.272C207.407 231.425 207.293 231.59 207.208 231.766C207.123 231.938 207.066 232.119 207.037 232.308ZM213.399 232.039L212.652 231.702C212.847 231.155 213.179 230.721 213.648 230.398C214.117 230.073 214.714 229.91 215.44 229.91C216.137 229.91 216.703 230.07 217.139 230.389C217.579 230.708 217.798 231.134 217.798 231.668C217.798 232.078 217.693 232.426 217.481 232.713C217.273 232.996 216.97 233.195 216.573 233.309C216.752 233.322 216.921 233.364 217.081 233.436C217.24 233.507 217.387 233.608 217.52 233.738C217.657 233.868 217.764 234.041 217.842 234.256C217.921 234.467 217.96 234.708 217.96 234.979C217.96 235.639 217.72 236.157 217.242 236.531C216.763 236.902 216.15 237.088 215.401 237.088C214.636 237.088 213.998 236.919 213.487 236.58C212.979 236.238 212.637 235.781 212.462 235.208L213.272 234.861C213.37 235.063 213.476 235.241 213.589 235.394C213.703 235.543 213.845 235.687 214.014 235.823C214.187 235.957 214.393 236.059 214.634 236.131C214.879 236.202 215.154 236.238 215.46 236.238C215.964 236.238 216.36 236.129 216.646 235.911C216.936 235.693 217.081 235.385 217.081 234.988C217.081 234.217 216.467 233.831 215.24 233.831H214.459V233.001H215.079C215.642 233.001 216.089 232.892 216.421 232.674C216.754 232.456 216.92 232.177 216.92 231.839C216.92 231.491 216.784 231.224 216.514 231.038C216.244 230.853 215.873 230.76 215.401 230.76C214.874 230.76 214.442 230.883 214.107 231.131C213.772 231.375 213.536 231.678 213.399 232.039Z" fill="black"/>
<rect x="250.5" y="226" width="14" height="14" rx="2" fill="#003E14"/>
<rect x="250.5" y="226" width="14" height="14" rx="2" fill="url(#paint7_linear_820_134)"/>
<rect x="250.5" y="226" width="14" height="14" rx="2" fill="url(#paint8_linear_820_134)"/>
<path d="M270.098 237V229.998H270.957V237H270.098ZM276.523 237V231.8H277.363V234.129L279.941 231.8H281.122L278.432 234.192L281.254 237H280.073L277.792 234.71L277.363 235.11V237H276.523ZM282.558 237V231.8H284.716C285.451 231.8 285.99 231.901 286.332 232.103C286.674 232.304 286.845 232.646 286.845 233.128C286.845 233.385 286.767 233.619 286.61 233.831C286.454 234.039 286.243 234.183 285.976 234.261C286.314 234.336 286.571 234.482 286.747 234.7C286.926 234.918 287.016 235.188 287.016 235.511C287.016 235.996 286.832 236.365 286.464 236.619C286.096 236.873 285.567 237 284.877 237H282.558ZM284.887 234.739H283.397V236.209H284.789C285.242 236.209 285.578 236.15 285.8 236.033C286.024 235.916 286.137 235.732 286.137 235.481C286.137 235.218 286.036 235.029 285.834 234.915C285.632 234.798 285.316 234.739 284.887 234.739ZM284.687 232.591H283.397V233.948H284.975C285.29 233.948 285.535 233.888 285.707 233.768C285.88 233.647 285.966 233.471 285.966 233.24C285.966 233.107 285.935 232.996 285.873 232.908C285.814 232.82 285.723 232.754 285.6 232.708C285.479 232.662 285.347 232.632 285.204 232.615C285.064 232.599 284.892 232.591 284.687 232.591ZM289.256 233.411L288.5 233.128C288.666 232.675 288.947 232.327 289.344 232.083C289.741 231.836 290.22 231.712 290.78 231.712C292.193 231.712 292.899 232.451 292.899 233.929V237H292.059V236.102C291.922 236.385 291.673 236.621 291.312 236.81C290.954 236.995 290.567 237.088 290.15 237.088C289.61 237.088 289.172 236.946 288.837 236.663C288.504 236.377 288.338 236.002 288.338 235.54C288.338 234.944 288.622 234.523 289.188 234.275C289.754 234.025 290.712 233.899 292.059 233.899C292.059 233.418 291.953 233.064 291.742 232.84C291.533 232.612 291.206 232.498 290.76 232.498C289.969 232.498 289.468 232.802 289.256 233.411ZM290.316 236.302C290.827 236.302 291.245 236.16 291.571 235.877C291.896 235.59 292.059 235.224 292.059 234.778V234.588C291.337 234.588 290.772 234.619 290.365 234.681C289.958 234.743 289.665 234.842 289.486 234.979C289.307 235.112 289.217 235.299 289.217 235.54C289.217 235.774 289.315 235.96 289.51 236.097C289.709 236.233 289.977 236.302 290.316 236.302ZM297.523 237.088C296.65 237.088 296.017 236.795 295.623 236.209V239.002H294.783V231.8H295.623V232.732C295.806 232.413 296.063 232.164 296.395 231.985C296.727 231.803 297.126 231.712 297.591 231.712C298.317 231.712 298.916 231.953 299.388 232.435C299.863 232.913 300.101 233.554 300.101 234.358C300.101 235.169 299.862 235.826 299.383 236.331C298.904 236.836 298.284 237.088 297.523 237.088ZM297.454 236.302C297.985 236.302 298.411 236.128 298.734 235.779C299.059 235.428 299.222 234.961 299.222 234.378C299.222 233.805 299.056 233.349 298.724 233.011C298.392 232.669 297.959 232.498 297.425 232.498C296.875 232.498 296.437 232.661 296.112 232.986C295.786 233.312 295.623 233.756 295.623 234.319V234.51C295.623 235.089 295.794 235.534 296.136 235.843C296.481 236.149 296.92 236.302 297.454 236.302ZM300.979 232.591V231.8H305.618V232.591H303.709V237H302.869V232.591H300.979ZM307.429 233.411L306.672 233.128C306.838 232.675 307.12 232.327 307.517 232.083C307.914 231.836 308.393 231.712 308.953 231.712C310.365 231.712 311.072 232.451 311.072 233.929V237H310.232V236.102C310.095 236.385 309.846 236.621 309.485 236.81C309.127 236.995 308.739 237.088 308.323 237.088C307.782 237.088 307.344 236.946 307.009 236.663C306.677 236.377 306.511 236.002 306.511 235.54C306.511 234.944 306.794 234.523 307.361 234.275C307.927 234.025 308.884 233.899 310.232 233.899C310.232 233.418 310.126 233.064 309.914 232.84C309.706 232.612 309.379 232.498 308.933 232.498C308.142 232.498 307.641 232.802 307.429 233.411ZM308.489 236.302C309 236.302 309.418 236.16 309.744 235.877C310.069 235.59 310.232 235.224 310.232 234.778V234.588C309.509 234.588 308.944 234.619 308.537 234.681C308.131 234.743 307.838 234.842 307.659 234.979C307.48 235.112 307.39 235.299 307.39 235.54C307.39 235.774 307.488 235.96 307.683 236.097C307.882 236.233 308.15 236.302 308.489 236.302ZM316.574 237V232.591H314.333V232.898C314.333 234.324 314.19 235.379 313.903 236.062C313.617 236.746 313.171 237.088 312.565 237.088C312.484 237.088 312.398 237.081 312.307 237.068V236.258C312.339 236.264 312.406 236.268 312.507 236.268C312.855 236.268 313.114 236.001 313.283 235.467C313.452 234.933 313.537 234.077 313.537 232.898V231.8H317.414V237H316.574ZM323.102 232.308L322.321 232.049C322.382 231.749 322.483 231.474 322.623 231.224C322.763 230.97 322.941 230.743 323.155 230.545C323.374 230.346 323.64 230.192 323.956 230.081C324.272 229.967 324.62 229.91 325.001 229.91C325.724 229.91 326.29 230.104 326.7 230.491C327.114 230.879 327.321 231.388 327.321 232.02C327.321 232.26 327.288 232.498 327.223 232.732C327.158 232.964 327.073 233.175 326.969 233.367C326.868 233.559 326.738 233.753 326.578 233.948C326.419 234.14 326.261 234.311 326.105 234.461C325.952 234.611 325.773 234.765 325.568 234.925C325.366 235.081 325.183 235.215 325.021 235.325C324.861 235.433 324.682 235.548 324.484 235.672L323.712 236.15H327.584V237H322.13V236.302L323.654 235.291C324.656 234.627 325.371 234.051 325.797 233.562C326.227 233.074 326.442 232.591 326.442 232.112C326.442 231.644 326.305 231.302 326.031 231.087C325.758 230.869 325.395 230.76 324.943 230.76C324.659 230.76 324.402 230.807 324.171 230.901C323.943 230.993 323.758 231.116 323.614 231.272C323.471 231.425 323.357 231.59 323.273 231.766C323.188 231.938 323.131 232.119 323.102 232.308ZM332.764 237V235.599H328.458V234.959L332.867 229.998H333.604V234.749H334.903V235.599H333.604V237H332.764ZM329.654 234.749H332.764V231.399L329.654 234.749Z" fill="black"/>
<rect x="367.5" y="226" width="14" height="14" rx="2" fill="black"/>
<rect x="367.5" y="226" width="14" height="14" rx="2" fill="url(#paint9_linear_820_134)"/>
<path d="M386.806 237V229.998H387.665V237H386.806ZM390.39 237V229.998H391.249V237H390.39ZM396.815 237V231.8H397.654V234.129L400.233 231.8H401.414L398.724 234.192L401.546 237H400.364L398.084 234.71L397.654 235.11V237H396.815ZM402.849 237V231.8H405.008C405.743 231.8 406.282 231.901 406.624 232.103C406.966 232.304 407.137 232.646 407.137 233.128C407.137 233.385 407.058 233.619 406.902 233.831C406.746 234.039 406.534 234.183 406.267 234.261C406.606 234.336 406.863 234.482 407.039 234.7C407.218 234.918 407.307 235.188 407.307 235.511C407.307 235.996 407.124 236.365 406.756 236.619C406.388 236.873 405.859 237 405.169 237H402.849ZM405.179 234.739H403.689V236.209H405.081C405.533 236.209 405.87 236.15 406.092 236.033C406.316 235.916 406.429 235.732 406.429 235.481C406.429 235.218 406.328 235.029 406.126 234.915C405.924 234.798 405.608 234.739 405.179 234.739ZM404.978 232.591H403.689V233.948H405.266C405.582 233.948 405.826 233.888 405.999 233.768C406.171 233.647 406.258 233.471 406.258 233.24C406.258 233.107 406.227 232.996 406.165 232.908C406.106 232.82 406.015 232.754 405.891 232.708C405.771 232.662 405.639 232.632 405.496 232.615C405.356 232.599 405.183 232.591 404.978 232.591ZM409.548 233.411L408.791 233.128C408.957 232.675 409.239 232.327 409.636 232.083C410.033 231.836 410.512 231.712 411.072 231.712C412.484 231.712 413.191 232.451 413.191 233.929V237H412.351V236.102C412.214 236.385 411.965 236.621 411.604 236.81C411.246 236.995 410.858 237.088 410.442 237.088C409.901 237.088 409.464 236.946 409.128 236.663C408.796 236.377 408.63 236.002 408.63 235.54C408.63 234.944 408.913 234.523 409.48 234.275C410.046 234.025 411.003 233.899 412.351 233.899C412.351 233.418 412.245 233.064 412.034 232.84C411.825 232.612 411.498 232.498 411.052 232.498C410.261 232.498 409.76 232.802 409.548 233.411ZM410.608 236.302C411.119 236.302 411.537 236.16 411.863 235.877C412.188 235.59 412.351 235.224 412.351 234.778V234.588C411.628 234.588 411.064 234.619 410.657 234.681C410.25 234.743 409.957 234.842 409.778 234.979C409.599 235.112 409.509 235.299 409.509 235.54C409.509 235.774 409.607 235.96 409.802 236.097C410.001 236.233 410.269 236.302 410.608 236.302ZM417.814 237.088C416.942 237.088 416.309 236.795 415.915 236.209V239.002H415.075V231.8H415.915V232.732C416.097 232.413 416.354 232.164 416.687 231.985C417.019 231.803 417.417 231.712 417.883 231.712C418.609 231.712 419.208 231.953 419.68 232.435C420.155 232.913 420.393 233.554 420.393 234.358C420.393 235.169 420.153 235.826 419.675 236.331C419.196 236.836 418.576 237.088 417.814 237.088ZM417.746 236.302C418.277 236.302 418.703 236.128 419.025 235.779C419.351 235.428 419.514 234.961 419.514 234.378C419.514 233.805 419.348 233.349 419.016 233.011C418.684 232.669 418.251 232.498 417.717 232.498C417.167 232.498 416.729 232.661 416.403 232.986C416.078 233.312 415.915 233.756 415.915 234.319V234.51C415.915 235.089 416.086 235.534 416.428 235.843C416.773 236.149 417.212 236.302 417.746 236.302ZM421.271 232.591V231.8H425.91V232.591H424.001V237H423.161V232.591H421.271ZM427.721 233.411L426.964 233.128C427.13 232.675 427.412 232.327 427.809 232.083C428.206 231.836 428.684 231.712 429.244 231.712C430.657 231.712 431.363 232.451 431.363 233.929V237H430.524V236.102C430.387 236.385 430.138 236.621 429.777 236.81C429.418 236.995 429.031 237.088 428.614 237.088C428.074 237.088 427.636 236.946 427.301 236.663C426.969 236.377 426.803 236.002 426.803 235.54C426.803 234.944 427.086 234.523 427.653 234.275C428.219 234.025 429.176 233.899 430.524 233.899C430.524 233.418 430.418 233.064 430.206 232.84C429.998 232.612 429.671 232.498 429.225 232.498C428.434 232.498 427.932 232.802 427.721 233.411ZM428.78 236.302C429.292 236.302 429.71 236.16 430.035 235.877C430.361 235.59 430.524 235.224 430.524 234.778V234.588C429.801 234.588 429.236 234.619 428.829 234.681C428.422 234.743 428.129 234.842 427.95 234.979C427.771 235.112 427.682 235.299 427.682 235.54C427.682 235.774 427.779 235.96 427.975 236.097C428.173 236.233 428.442 236.302 428.78 236.302ZM436.866 237V232.591H434.625V232.898C434.625 234.324 434.482 235.379 434.195 236.062C433.909 236.746 433.463 237.088 432.857 237.088C432.776 237.088 432.69 237.081 432.598 237.068V236.258C432.631 236.264 432.698 236.268 432.799 236.268C433.147 236.268 433.406 236.001 433.575 235.467C433.744 234.933 433.829 234.077 433.829 232.898V231.8H437.706V237H436.866ZM443.394 232.308L442.612 232.049C442.674 231.749 442.775 231.474 442.915 231.224C443.055 230.97 443.232 230.743 443.447 230.545C443.665 230.346 443.932 230.192 444.248 230.081C444.564 229.967 444.912 229.91 445.293 229.91C446.016 229.91 446.582 230.104 446.992 230.491C447.406 230.879 447.612 231.388 447.612 232.02C447.612 232.26 447.58 232.498 447.515 232.732C447.45 232.964 447.365 233.175 447.261 233.367C447.16 233.559 447.03 233.753 446.87 233.948C446.711 234.14 446.553 234.311 446.396 234.461C446.243 234.611 446.064 234.765 445.859 234.925C445.658 235.081 445.475 235.215 445.312 235.325C445.153 235.433 444.974 235.548 444.775 235.672L444.004 236.15H447.876V237H442.422V236.302L443.945 235.291C444.948 234.627 445.662 234.051 446.089 233.562C446.519 233.074 446.733 232.591 446.733 232.112C446.733 231.644 446.597 231.302 446.323 231.087C446.05 230.869 445.687 230.76 445.234 230.76C444.951 230.76 444.694 230.807 444.463 230.901C444.235 230.993 444.049 231.116 443.906 231.272C443.763 231.425 443.649 231.59 443.564 231.766C443.48 231.938 443.423 232.119 443.394 232.308ZM453.056 237V235.599H448.75V234.959L453.159 229.998H453.896V234.749H455.195V235.599H453.896V237H453.056ZM449.946 234.749H453.056V231.399L449.946 234.749Z" fill="black"/>
<defs>
<linearGradient id="paint0_linear_820_134" x1="-2.16812e-06" y1="217" x2="77.1399" y2="101.389" gradientUnits="userSpaceOnUse">
<stop stop-color="#00B8B0"/>
<stop offset="1" stop-color="#03D7A0"/>
</linearGradient>
<linearGradient id="paint1_linear_820_134" x1="121" y1="217" x2="252.567" y2="91.9573" gradientUnits="userSpaceOnUse">
<stop stop-color="#096EE0"/>
<stop offset="1" stop-color="#3EC6FE"/>
</linearGradient>
<linearGradient id="paint2_linear_820_134" x1="290.5" y1="0" x2="290.5" y2="217" gradientUnits="userSpaceOnUse">
<stop stop-color="#9F75FF" stop-opacity="0"/>
<stop offset="1" stop-color="#9F75FF"/>
</linearGradient>
<linearGradient id="paint3_linear_820_134" x1="242" y1="217" x2="374.463" y2="192.611" gradientUnits="userSpaceOnUse">
<stop stop-color="#8227CE"/>
<stop offset="1" stop-color="#956AFF"/>
</linearGradient>
<linearGradient id="paint4_linear_820_134" x1="363" y1="217" x2="511.402" y2="93.9632" gradientUnits="userSpaceOnUse">
<stop stop-color="#2305D4"/>
<stop offset="1" stop-color="#5438D3"/>
</linearGradient>
<linearGradient id="paint5_linear_820_134" x1="4.5" y1="240" x2="14.5896" y2="223.787" gradientUnits="userSpaceOnUse">
<stop stop-color="#00B8B0"/>
<stop offset="1" stop-color="#03D7A0"/>
</linearGradient>
<linearGradient id="paint6_linear_820_134" x1="127.5" y1="240" x2="137.59" y2="223.787" gradientUnits="userSpaceOnUse">
<stop stop-color="#096EE0"/>
<stop offset="1" stop-color="#3EC6FE"/>
</linearGradient>
<linearGradient id="paint7_linear_820_134" x1="257.5" y1="226" x2="257.5" y2="240" gradientUnits="userSpaceOnUse">
<stop stop-color="#9F75FF" stop-opacity="0"/>
<stop offset="1" stop-color="#9F75FF"/>
</linearGradient>
<linearGradient id="paint8_linear_820_134" x1="250.5" y1="240" x2="267.399" y2="233.039" gradientUnits="userSpaceOnUse">
<stop stop-color="#8227CE"/>
<stop offset="1" stop-color="#956AFF"/>
</linearGradient>
<linearGradient id="paint9_linear_820_134" x1="367.5" y1="240" x2="377.59" y2="223.787" gradientUnits="userSpaceOnUse">
<stop stop-color="#2305D4"/>
<stop offset="1" stop-color="#5438D3"/>
</linearGradient>
<clipPath id="clip0_820_134">
<rect width="460" height="217" fill="white"/>
</clipPath>
</defs>
</svg>
