<svg width="309" height="336" fill="none" xmlns="http://www.w3.org/2000/svg"><path d="M26.8988 13V5.99805H28.1195V11.8623H31.518V5.99805H32.7387V11.8623H33.6371V14.25H32.4799V13H26.8988ZM37.3232 13.1221C36.4997 13.1221 35.8356 12.8698 35.3311 12.3652C34.8265 11.8607 34.5742 11.2015 34.5742 10.3877C34.5742 9.59993 34.8281 8.95215 35.3359 8.44434C35.847 7.93327 36.5127 7.67773 37.333 7.67773C37.7008 7.67773 38.0459 7.73796 38.3682 7.8584C38.6904 7.97884 38.9688 8.14811 39.2031 8.36621C39.4408 8.58431 39.6263 8.85612 39.7598 9.18164C39.8965 9.50391 39.9648 9.8571 39.9648 10.2412C39.9648 10.4072 39.9551 10.5895 39.9355 10.7881H35.7412C35.7738 11.1787 35.9382 11.4961 36.2344 11.7402C36.5339 11.9811 36.9066 12.1016 37.3525 12.1016C38.0231 12.1016 38.5065 11.8411 38.8027 11.3203L39.7646 11.6377C39.5628 12.1064 39.2503 12.471 38.8271 12.7314C38.404 12.9919 37.9027 13.1221 37.3232 13.1221ZM37.3135 8.69824C36.8936 8.69824 36.5404 8.80566 36.2539 9.02051C35.9707 9.23535 35.8047 9.51855 35.7559 9.87012H38.8223C38.8092 9.53158 38.6562 9.25163 38.3633 9.03027C38.0736 8.80892 37.7236 8.69824 37.3135 8.69824ZM45.2281 13V10.8711H42.5865V13H41.4684V7.7998H42.5865V9.85059H45.2281V7.7998H46.3463V13H45.2281ZM47.6545 8.82031V7.7998H52.3859V8.82031H50.5744V13H49.4514V8.82031H47.6545ZM56.6336 13.1221C56.2137 13.1221 55.8507 13.0472 55.5447 12.8975C55.2387 12.7477 54.9946 12.5459 54.8123 12.292V15.002H53.6941V7.7998H54.8123V8.62012C54.9848 8.3304 55.2322 8.10091 55.5545 7.93164C55.8768 7.76237 56.2495 7.67773 56.6727 7.67773C57.4083 7.67773 58.0089 7.91862 58.4744 8.40039C58.9399 8.87891 59.1727 9.52507 59.1727 10.3389C59.1727 11.1722 58.935 11.8444 58.4598 12.3555C57.9878 12.8665 57.379 13.1221 56.6336 13.1221ZM55.2664 11.6719C55.5724 11.9583 55.9581 12.1016 56.4236 12.1016C56.8891 12.1016 57.2667 11.9469 57.5564 11.6377C57.8462 11.3285 57.991 10.9085 57.991 10.3779C57.991 9.86035 57.8429 9.45182 57.5467 9.15234C57.2537 8.84961 56.8761 8.69824 56.4139 8.69824C55.9321 8.69824 55.5447 8.8431 55.2518 9.13281C54.9588 9.42253 54.8123 9.81803 54.8123 10.3193V10.4805C54.8123 10.985 54.9637 11.3822 55.2664 11.6719ZM61.4135 9.58203L60.4516 9.25977C60.5948 8.7487 60.8715 8.35807 61.2816 8.08789C61.6918 7.81445 62.2094 7.67773 62.8344 7.67773C63.5603 7.67773 64.1088 7.86654 64.4799 8.24414C64.8542 8.61849 65.0414 9.17025 65.0414 9.89941V13H63.9037V12.1309C63.7735 12.4206 63.5521 12.6582 63.2396 12.8438C62.9304 13.0293 62.5674 13.1221 62.1508 13.1221C61.5909 13.1221 61.1498 12.9772 60.8275 12.6875C60.5053 12.3945 60.3441 12.012 60.3441 11.54C60.3441 10.9508 60.6273 10.5195 61.1937 10.2461C61.7602 9.97266 62.67 9.83431 63.9232 9.83105C63.9232 9.07585 63.5473 8.69824 62.7953 8.69824C62.0661 8.69824 61.6055 8.99284 61.4135 9.58203ZM62.4242 12.1211C62.8734 12.1211 63.2348 12.0007 63.5082 11.7598C63.7849 11.5156 63.9232 11.1982 63.9232 10.8076V10.6514C63.0508 10.6514 62.4324 10.7132 62.0678 10.8369C61.7032 10.9574 61.5209 11.1689 61.5209 11.4717C61.5209 11.6735 61.6006 11.833 61.7602 11.9502C61.9229 12.0641 62.1443 12.1211 62.4242 12.1211ZM70.3047 13V8.82031H68.4639V9.09863C68.4639 10.4919 68.319 11.5107 68.0293 12.1553C67.7428 12.7998 67.279 13.1221 66.6377 13.1221C66.4652 13.1221 66.3382 13.1107 66.2568 13.0879V12.0283C66.2764 12.0348 66.3219 12.0381 66.3936 12.0381C66.7484 12.0381 67.0023 11.8102 67.1553 11.3545C67.3083 10.8955 67.3848 10.1436 67.3848 9.09863V7.7998H71.4277V13H70.3047ZM73.3219 13V7.7998H74.44V9.32812H75.6314C76.0318 9.32812 76.3753 9.37695 76.6617 9.47461C76.9514 9.56901 77.176 9.70247 77.3355 9.875C77.495 10.0475 77.6106 10.238 77.6822 10.4463C77.7538 10.6546 77.7896 10.889 77.7896 11.1494C77.7896 11.4098 77.7506 11.6475 77.6725 11.8623C77.5943 12.0739 77.4706 12.2676 77.3014 12.4434C77.1353 12.6191 76.9042 12.7559 76.608 12.8535C76.3118 12.9512 75.9618 13 75.5582 13H73.3219ZM75.4996 10.3486H74.44V11.9795H75.4898C75.8837 11.9795 76.1685 11.9111 76.3443 11.7744C76.5201 11.6377 76.608 11.4326 76.608 11.1592C76.608 10.6188 76.2385 10.3486 75.4996 10.3486ZM82.9992 13V10.8711H80.3576V13H79.2395V7.7998H80.3576V9.85059H82.9992V7.7998H84.1174V13H82.9992ZM90.9139 13V7.7998H92.0369V13H90.9139ZM85.9969 13V7.7998H87.115V9.32812H88.1355C88.5327 9.32812 88.8745 9.37695 89.1609 9.47461C89.4474 9.56901 89.6687 9.70247 89.825 9.875C89.9845 10.0475 90.0984 10.238 90.1668 10.4463C90.2384 10.6546 90.2742 10.889 90.2742 11.1494C90.2742 11.4098 90.2352 11.6475 90.157 11.8623C90.0822 12.0739 89.9617 12.2676 89.7957 12.4434C89.6297 12.6191 89.3986 12.7559 89.1023 12.8535C88.8094 12.9512 88.4627 13 88.0623 13H85.9969ZM88.0037 10.3486H87.115V11.9795H87.9939C88.3813 11.9795 88.6613 11.9111 88.8338 11.7744C89.0063 11.6377 89.0926 11.4326 89.0926 11.1592C89.0926 10.6188 88.7296 10.3486 88.0037 10.3486ZM94.9125 13H93.9262V7.7998H95.0443V11.3008L97.8617 7.7998H98.8627V13H97.7445V9.49902L94.9125 13ZM94.6342 5.59766H95.6547C95.6547 5.82227 95.7198 6.01107 95.85 6.16406C95.9802 6.3138 96.1641 6.38867 96.4018 6.38867C96.6264 6.38867 96.8021 6.3138 96.9291 6.16406C97.0593 6.01107 97.1244 5.82227 97.1244 5.59766H98.1449C98.1449 6.08919 97.9822 6.48307 97.6566 6.7793C97.3344 7.07227 96.921 7.21875 96.4164 7.21875C95.9021 7.21875 95.4756 7.07389 95.1371 6.78418C94.8018 6.49121 94.6342 6.0957 94.6342 5.59766ZM64.9531 27.1221C64.5332 27.1221 64.1702 27.0472 63.8643 26.8975C63.5583 26.7477 63.3141 26.5459 63.1318 26.292V29.002H62.0137V21.7998H63.1318V22.6201C63.3044 22.3304 63.5518 22.1009 63.874 21.9316C64.1963 21.7624 64.569 21.6777 64.9922 21.6777C65.7279 21.6777 66.3285 21.9186 66.7939 22.4004C67.2594 22.8789 67.4922 23.5251 67.4922 24.3389C67.4922 25.1722 67.2546 25.8444 66.7793 26.3555C66.3073 26.8665 65.6986 27.1221 64.9531 27.1221ZM63.5859 25.6719C63.8919 25.9583 64.2777 26.1016 64.7432 26.1016C65.2087 26.1016 65.5863 25.9469 65.876 25.6377C66.1657 25.3285 66.3105 24.9085 66.3105 24.3779C66.3105 23.8604 66.1624 23.4518 65.8662 23.1523C65.5732 22.8496 65.1956 22.6982 64.7334 22.6982C64.2516 22.6982 63.8643 22.8431 63.5713 23.1328C63.2783 23.4225 63.1318 23.818 63.1318 24.3193V24.4805C63.1318 24.985 63.2832 25.3822 63.5859 25.6719ZM71.4322 27.1221C70.6087 27.1221 69.9446 26.8698 69.44 26.3652C68.9355 25.8607 68.6832 25.2015 68.6832 24.3877C68.6832 23.5999 68.9371 22.9521 69.4449 22.4443C69.956 21.9333 70.6217 21.6777 71.442 21.6777C71.8098 21.6777 72.1549 21.738 72.4771 21.8584C72.7994 21.9788 73.0777 22.1481 73.3121 22.3662C73.5497 22.5843 73.7353 22.8561 73.8688 23.1816C74.0055 23.5039 74.0738 23.8571 74.0738 24.2412C74.0738 24.4072 74.0641 24.5895 74.0445 24.7881H69.8502C69.8827 25.1787 70.0471 25.4961 70.3434 25.7402C70.6428 25.9811 71.0156 26.1016 71.4615 26.1016C72.1321 26.1016 72.6155 25.8411 72.9117 25.3203L73.8736 25.6377C73.6718 26.1064 73.3593 26.471 72.9361 26.7314C72.513 26.9919 72.0117 27.1221 71.4322 27.1221ZM71.4225 22.6982C71.0025 22.6982 70.6494 22.8057 70.3629 23.0205C70.0797 23.2354 69.9137 23.5186 69.8648 23.8701H72.9313C72.9182 23.5316 72.7652 23.2516 72.4723 23.0303C72.1826 22.8089 71.8326 22.6982 71.4225 22.6982ZM75.5773 27V21.7998H79.4152V22.8203H76.6955V27H75.5773ZM81.7391 27H80.7527V21.7998H81.8709V25.3008L84.6883 21.7998H85.6893V27H84.5711V23.499L81.7391 27ZM87.2172 24.3877C87.2172 23.5902 87.476 22.9391 87.9936 22.4346C88.5144 21.93 89.1882 21.6777 90.015 21.6777C90.8484 21.6777 91.5287 21.9333 92.0561 22.4443C92.5834 22.9521 92.8471 23.5999 92.8471 24.3877C92.8471 25.182 92.5818 25.8363 92.0512 26.3506C91.5238 26.8649 90.8451 27.1221 90.015 27.1221C89.1947 27.1221 88.5225 26.8698 87.9984 26.3652C87.4776 25.8574 87.2172 25.1982 87.2172 24.3877ZM88.3988 24.4023C88.3988 24.9036 88.5486 25.3122 88.848 25.6279C89.1475 25.9437 89.5398 26.1016 90.0248 26.1016C90.5196 26.1016 90.9167 25.9486 91.2162 25.6426C91.5157 25.3366 91.6654 24.9232 91.6654 24.4023C91.6654 23.8913 91.5092 23.4795 91.1967 23.167C90.8874 22.8545 90.4936 22.6982 90.015 22.6982C89.543 22.6982 89.1557 22.8529 88.8529 23.1621C88.5502 23.4714 88.3988 23.8848 88.3988 24.4023ZM98.1445 27V24.8711H95.5029V27H94.3848V21.7998H95.5029V23.8506H98.1445V21.7998H99.2627V27H98.1445Z" fill="black"/><rect x="108" y="1" width="80" height="14" rx="2" fill="#0FA8E0"/><path d="M192.486 6.36035V4.99805H197.843V5.9502L194.786 12H193.346L196.285 6.36035H192.486ZM198.423 13.5088L198.072 12.8301C198.231 12.7812 198.389 12.6901 198.545 12.5566C198.705 12.4264 198.811 12.2783 198.863 12.1123V12.0391C198.853 12.0358 198.837 12.0326 198.814 12.0293C198.791 12.026 198.775 12.0228 198.765 12.0195C198.378 11.9056 198.184 11.6517 198.184 11.2578C198.184 11.0267 198.259 10.8379 198.409 10.6914C198.562 10.5449 198.767 10.4717 199.024 10.4717C199.314 10.4717 199.543 10.5645 199.712 10.75C199.882 10.9355 199.966 11.1862 199.966 11.502C199.966 11.7786 199.921 12.0342 199.829 12.2686C199.738 12.5029 199.615 12.6999 199.458 12.8594C199.305 13.0189 199.143 13.1523 198.97 13.2598C198.798 13.3672 198.615 13.4502 198.423 13.5088ZM200.957 6.10156L203.218 4.99805H204.17V12H202.847V6.61914L201.479 7.22949L200.957 6.10156Z" fill="black"/><rect x="108" y="17" width="60" height="14" rx="2" fill="#23DBB0"/><path d="M173.469 24.5576L173.859 20.998H178.571V22.3604H174.977L174.811 23.6006C175.111 23.3988 175.567 23.2979 176.179 23.2979C177.028 23.2979 177.691 23.5143 178.166 23.9473C178.641 24.3802 178.879 24.9548 178.879 25.6709C178.879 26.1592 178.758 26.5921 178.517 26.9697C178.28 27.3473 177.953 27.637 177.536 27.8389C177.123 28.0407 176.657 28.1416 176.139 28.1416C175.433 28.1416 174.823 27.9984 174.308 27.7119C173.797 27.4222 173.394 26.999 173.097 26.4424L174.269 25.7783C174.452 26.0745 174.693 26.3154 174.992 26.501C175.291 26.6865 175.637 26.7793 176.027 26.7793C176.506 26.7793 176.87 26.6784 177.121 26.4766C177.372 26.2715 177.497 26.0029 177.497 25.6709C177.497 25.3324 177.355 25.0622 177.072 24.8604C176.792 24.6585 176.411 24.5576 175.929 24.5576C175.373 24.5576 174.863 24.7122 174.401 25.0215L173.469 24.5576ZM180.236 29.5088L179.884 28.8301C180.044 28.7812 180.202 28.6901 180.358 28.5566C180.517 28.4264 180.623 28.2783 180.675 28.1123V28.0391C180.665 28.0358 180.649 28.0326 180.626 28.0293C180.604 28.026 180.587 28.0228 180.578 28.0195C180.19 27.9056 179.996 27.6517 179.996 27.2578C179.996 27.0267 180.071 26.8379 180.221 26.6914C180.374 26.5449 180.579 26.4717 180.836 26.4717C181.126 26.4717 181.356 26.5645 181.525 26.75C181.694 26.9355 181.779 27.1862 181.779 27.502C181.779 27.7786 181.733 28.0342 181.642 28.2686C181.551 28.5029 181.427 28.6999 181.271 28.8594C181.118 29.0189 180.955 29.1523 180.783 29.2598C180.61 29.3672 180.428 29.4502 180.236 29.5088ZM184.273 23.459L183.082 23.0488C183.232 22.3685 183.569 21.8346 184.093 21.4473C184.62 21.0566 185.237 20.8613 185.943 20.8613C186.747 20.8613 187.371 21.0697 187.813 21.4863C188.259 21.8997 188.482 22.4613 188.482 23.1709C188.482 23.734 188.29 24.2533 187.906 24.7285C187.525 25.2005 186.878 25.7181 185.963 26.2812L185.382 26.6377H188.619V28H183.072V26.9014L184.151 26.1787C184.763 25.7686 185.252 25.43 185.616 25.1631C185.981 24.8929 186.279 24.6455 186.51 24.4209C186.741 24.193 186.897 23.9961 186.979 23.8301C187.06 23.6608 187.101 23.4801 187.101 23.2881C187.101 22.9365 186.988 22.6712 186.764 22.4922C186.542 22.3099 186.238 22.2188 185.851 22.2188C185.626 22.2188 185.421 22.2546 185.235 22.3262C185.053 22.3945 184.9 22.4906 184.776 22.6143C184.653 22.738 184.55 22.8682 184.469 23.0049C184.391 23.1416 184.326 23.293 184.273 23.459Z" fill="black"/><path d="M28.2562 57.7197L29.3158 58.1006C29.0489 58.7256 28.6273 59.2188 28.0512 59.5801C27.4783 59.9414 26.8256 60.1221 26.0932 60.1221C25.4063 60.1221 24.7895 59.9674 24.2426 59.6582C23.6957 59.349 23.2693 58.9193 22.9633 58.3691C22.6573 57.8158 22.5043 57.1924 22.5043 56.499C22.5043 55.8122 22.6589 55.1937 22.9682 54.6436C23.2807 54.0902 23.7136 53.6589 24.267 53.3496C24.8236 53.0371 25.4486 52.8809 26.142 52.8809C26.8581 52.8809 27.5027 53.0664 28.0756 53.4375C28.6518 53.8086 29.0473 54.2969 29.2621 54.9023L28.2025 55.2783C27.7501 54.4385 27.0632 54.0186 26.142 54.0186C25.4421 54.0186 24.8708 54.2497 24.4281 54.7119C23.9854 55.1742 23.7641 55.7699 23.7641 56.499C23.7641 57.2184 23.987 57.8125 24.433 58.2812C24.8822 58.7467 25.4519 58.9795 26.142 58.9795C26.6107 58.9795 27.029 58.8688 27.3969 58.6475C27.768 58.4261 28.0544 58.1169 28.2562 57.7197ZM33.0068 60.1221C32.1833 60.1221 31.5192 59.8698 31.0146 59.3652C30.5101 58.8607 30.2578 58.2015 30.2578 57.3877C30.2578 56.5999 30.5117 55.9521 31.0195 55.4443C31.5306 54.9333 32.1963 54.6777 33.0166 54.6777C33.3844 54.6777 33.7295 54.738 34.0518 54.8584C34.374 54.9788 34.6523 55.1481 34.8867 55.3662C35.1243 55.5843 35.3099 55.8561 35.4434 56.1816C35.5801 56.5039 35.6484 56.8571 35.6484 57.2412C35.6484 57.4072 35.6387 57.5895 35.6191 57.7881H31.4248C31.4574 58.1787 31.6217 58.4961 31.918 58.7402C32.2174 58.9811 32.5902 59.1016 33.0361 59.1016C33.7067 59.1016 34.1901 58.8411 34.4863 58.3203L35.4482 58.6377C35.2464 59.1064 34.9339 59.471 34.5107 59.7314C34.0876 59.9919 33.5863 60.1221 33.0068 60.1221ZM32.9971 55.6982C32.5771 55.6982 32.224 55.8057 31.9375 56.0205C31.6543 56.2354 31.4883 56.5186 31.4395 56.8701H34.5059C34.4928 56.5316 34.3398 56.2516 34.0469 56.0303C33.7572 55.8089 33.4072 55.6982 32.9971 55.6982ZM37.152 60V54.7998H39.5592C40.2818 54.7998 40.8092 54.904 41.1412 55.1123C41.4732 55.3206 41.6393 55.6673 41.6393 56.1523C41.6393 56.403 41.566 56.626 41.4195 56.8213C41.2763 57.0133 41.0826 57.1533 40.8385 57.2412C41.1542 57.3161 41.4 57.4658 41.5758 57.6904C41.7516 57.9118 41.8395 58.1722 41.8395 58.4717C41.8395 58.9632 41.6604 59.3408 41.3023 59.6045C40.9443 59.8682 40.4234 60 39.7398 60H37.152ZM39.652 57.8223H38.2701V59.0381H39.5689C39.9303 59.0381 40.2021 58.9876 40.3844 58.8867C40.5667 58.7858 40.6578 58.6263 40.6578 58.4082C40.6578 58.2031 40.5764 58.055 40.4137 57.9639C40.2509 57.8695 39.997 57.8223 39.652 57.8223ZM39.4615 55.7617H38.2701V56.8994H39.691C39.9319 56.8994 40.1191 56.8506 40.2525 56.7529C40.3893 56.6553 40.4576 56.5104 40.4576 56.3184C40.4576 56.1035 40.3746 55.957 40.2086 55.8789C40.0426 55.8008 39.7936 55.7617 39.4615 55.7617ZM45.8088 60.1221C44.9852 60.1221 44.3212 59.8698 43.8166 59.3652C43.312 58.8607 43.0598 58.2015 43.0598 57.3877C43.0598 56.5999 43.3137 55.9521 43.8215 55.4443C44.3326 54.9333 44.9982 54.6777 45.8186 54.6777C46.1864 54.6777 46.5314 54.738 46.8537 54.8584C47.176 54.9788 47.4543 55.1481 47.6887 55.3662C47.9263 55.5843 48.1118 55.8561 48.2453 56.1816C48.382 56.5039 48.4504 56.8571 48.4504 57.2412C48.4504 57.4072 48.4406 57.5895 48.4211 57.7881H44.2268C44.2593 58.1787 44.4237 58.4961 44.7199 58.7402C45.0194 58.9811 45.3921 59.1016 45.8381 59.1016C46.5087 59.1016 46.9921 58.8411 47.2883 58.3203L48.2502 58.6377C48.0484 59.1064 47.7359 59.471 47.3127 59.7314C46.8895 59.9919 46.3882 60.1221 45.8088 60.1221ZM45.799 55.6982C45.3791 55.6982 45.0259 55.8057 44.7395 56.0205C44.4562 56.2354 44.2902 56.5186 44.2414 56.8701H47.3078C47.2948 56.5316 47.1418 56.2516 46.8488 56.0303C46.5591 55.8089 46.2092 55.6982 45.799 55.6982ZM52.8934 60.1221C52.4734 60.1221 52.1105 60.0472 51.8045 59.8975C51.4985 59.7477 51.2544 59.5459 51.0721 59.292V62.002H49.9539V54.7998H51.0721V55.6201C51.2446 55.3304 51.492 55.1009 51.8143 54.9316C52.1365 54.7624 52.5092 54.6777 52.9324 54.6777C53.6681 54.6777 54.2687 54.9186 54.7342 55.4004C55.1997 55.8789 55.4324 56.5251 55.4324 57.3389C55.4324 58.1722 55.1948 58.8444 54.7195 59.3555C54.2475 59.8665 53.6388 60.1221 52.8934 60.1221ZM51.5262 58.6719C51.8322 58.9583 52.2179 59.1016 52.6834 59.1016C53.1489 59.1016 53.5265 58.9469 53.8162 58.6377C54.1059 58.3285 54.2508 57.9085 54.2508 57.3779C54.2508 56.8604 54.1027 56.4518 53.8064 56.1523C53.5135 55.8496 53.1359 55.6982 52.6736 55.6982C52.1919 55.6982 51.8045 55.8431 51.5115 56.1328C51.2186 56.4225 51.0721 56.818 51.0721 57.3193V57.4805C51.0721 57.985 51.2234 58.3822 51.5262 58.6719ZM56.6234 57.3877C56.6234 56.5902 56.8822 55.9391 57.3998 55.4346C57.9206 54.93 58.5945 54.6777 59.4213 54.6777C60.2546 54.6777 60.935 54.9333 61.4623 55.4443C61.9896 55.9521 62.2533 56.5999 62.2533 57.3877C62.2533 58.182 61.988 58.8363 61.4574 59.3506C60.9301 59.8649 60.2514 60.1221 59.4213 60.1221C58.601 60.1221 57.9288 59.8698 57.4047 59.3652C56.8839 58.8574 56.6234 58.1982 56.6234 57.3877ZM57.8051 57.4023C57.8051 57.9036 57.9548 58.3122 58.2543 58.6279C58.5538 58.9437 58.946 59.1016 59.4311 59.1016C59.9258 59.1016 60.323 58.9486 60.6225 58.6426C60.9219 58.3366 61.0717 57.9232 61.0717 57.4023C61.0717 56.8913 60.9154 56.4795 60.6029 56.167C60.2937 55.8545 59.8998 55.6982 59.4213 55.6982C58.9493 55.6982 58.5619 55.8529 58.2592 56.1621C57.9564 56.4714 57.8051 56.8848 57.8051 57.4023ZM63.918 57.7197V56.7188H66.6572V57.7197H63.918ZM71.3053 60.1221C70.4524 60.1221 69.7558 59.9512 69.2154 59.6094C68.6783 59.2643 68.317 58.7614 68.1314 58.1006L69.1959 57.7197C69.3684 58.1494 69.6142 58.4668 69.9332 58.6719C70.2522 58.877 70.6656 58.9795 71.1734 58.9795C71.7171 58.9795 72.1272 58.8883 72.4039 58.7061C72.6838 58.5238 72.8238 58.2552 72.8238 57.9004C72.8238 57.5846 72.7018 57.3551 72.4576 57.2119C72.2135 57.0654 71.8294 56.9922 71.3053 56.9922H70.1822V55.8496H71.1148C71.5803 55.8496 71.94 55.7731 72.1939 55.6201C72.4478 55.4639 72.5748 55.2409 72.5748 54.9512C72.5748 54.3294 72.067 54.0186 71.0514 54.0186C70.1204 54.0186 69.5149 54.4385 69.235 55.2783L68.1754 54.9023C68.3609 54.2611 68.719 53.7646 69.2496 53.4131C69.7835 53.0583 70.428 52.8809 71.1832 52.8809C72.01 52.8809 72.6578 53.0518 73.1266 53.3936C73.5986 53.7321 73.8346 54.2008 73.8346 54.7998C73.8346 55.1481 73.7304 55.4574 73.5221 55.7275C73.317 55.9977 73.0305 56.1979 72.6627 56.3281C73.1217 56.429 73.4732 56.6146 73.7174 56.8848C73.9615 57.1549 74.0836 57.4967 74.0836 57.9102C74.0836 58.6003 73.8378 59.1423 73.3463 59.5361C72.8547 59.9268 72.1744 60.1221 71.3053 60.1221ZM76.3635 56.582L75.4016 56.2598C75.5448 55.7487 75.8215 55.3581 76.2316 55.0879C76.6418 54.8145 77.1594 54.6777 77.7844 54.6777C78.5103 54.6777 79.0588 54.8665 79.4299 55.2441C79.8042 55.6185 79.9914 56.1702 79.9914 56.8994V60H78.8537V59.1309C78.7235 59.4206 78.5022 59.6582 78.1897 59.8438C77.8804 60.0293 77.5175 60.1221 77.1008 60.1221C76.5409 60.1221 76.0998 59.9772 75.7775 59.6875C75.4553 59.3945 75.2941 59.012 75.2941 58.54C75.2941 57.9508 75.5773 57.5195 76.1438 57.2461C76.7102 56.9727 77.62 56.8343 78.8732 56.8311C78.8732 56.0758 78.4973 55.6982 77.7453 55.6982C77.0161 55.6982 76.5555 55.9928 76.3635 56.582ZM77.3742 59.1211C77.8234 59.1211 78.1848 59.0007 78.4582 58.7598C78.7349 58.5156 78.8732 58.1982 78.8732 57.8076V57.6514C78.0008 57.6514 77.3824 57.7132 77.0178 57.8369C76.6532 57.9574 76.4709 58.1689 76.4709 58.4717C76.4709 58.6735 76.5507 58.833 76.7102 58.9502C76.8729 59.0641 77.0943 59.1211 77.3742 59.1211ZM85.4158 60V55.8203H82.8963V60H81.7781V54.7998H86.534V60H85.4158ZM89.1264 56.582L88.1645 56.2598C88.3077 55.7487 88.5844 55.3581 88.9945 55.0879C89.4047 54.8145 89.9223 54.6777 90.5473 54.6777C91.2732 54.6777 91.8217 54.8665 92.1928 55.2441C92.5671 55.6185 92.7543 56.1702 92.7543 56.8994V60H91.6166V59.1309C91.4864 59.4206 91.265 59.6582 90.9525 59.8438C90.6433 60.0293 90.2803 60.1221 89.8637 60.1221C89.3038 60.1221 88.8627 59.9772 88.5404 59.6875C88.2182 59.3945 88.057 59.012 88.057 58.54C88.057 57.9508 88.3402 57.5195 88.9066 57.2461C89.473 56.9727 90.3829 56.8343 91.6361 56.8311C91.6361 56.0758 91.2602 55.6982 90.5082 55.6982C89.779 55.6982 89.3184 55.9928 89.1264 56.582ZM90.1371 59.1211C90.5863 59.1211 90.9477 59.0007 91.2211 58.7598C91.4978 58.5156 91.6361 58.1982 91.6361 57.8076V57.6514C90.7637 57.6514 90.1452 57.7132 89.7807 57.8369C89.4161 57.9574 89.2338 58.1689 89.2338 58.4717C89.2338 58.6735 89.3135 58.833 89.473 58.9502C89.6358 59.0641 89.8572 59.1211 90.1371 59.1211ZM93.8965 61.1621V58.9795H94.4775C94.904 58.2373 95.1172 57.2445 95.1172 56.001V54.7998H99.0771V58.9795H99.8486V61.1621H98.7891V60H94.9609V61.1621H93.8965ZM96.1377 55.8203V56.001C96.1377 56.5902 96.0905 57.1533 95.9961 57.6904C95.9049 58.2275 95.7796 58.6572 95.6201 58.9795H97.959V55.8203H96.1377Z" fill="black"/><rect x="108" y="41" width="60" height="14" rx="2" fill="#0FA8E0"/><path d="M173.449 48.5576L173.84 44.998H178.552V46.3604H174.958L174.792 47.6006C175.091 47.3988 175.547 47.2979 176.159 47.2979C177.009 47.2979 177.671 47.5143 178.146 47.9473C178.622 48.3802 178.859 48.9548 178.859 49.6709C178.859 50.1592 178.739 50.5921 178.498 50.9697C178.26 51.3473 177.933 51.637 177.516 51.8389C177.103 52.0407 176.638 52.1416 176.12 52.1416C175.414 52.1416 174.803 51.9984 174.289 51.7119C173.778 51.4222 173.374 50.999 173.078 50.4424L174.25 49.7783C174.432 50.0745 174.673 50.3154 174.972 50.501C175.272 50.6865 175.617 50.7793 176.008 50.7793C176.486 50.7793 176.851 50.6784 177.101 50.4766C177.352 50.2715 177.477 50.0029 177.477 49.6709C177.477 49.3324 177.336 49.0622 177.053 48.8604C176.773 48.6585 176.392 48.5576 175.91 48.5576C175.353 48.5576 174.844 48.7122 174.382 49.0215L173.449 48.5576ZM180.216 53.5088L179.865 52.8301C180.024 52.7812 180.182 52.6901 180.338 52.5566C180.498 52.4264 180.604 52.2783 180.656 52.1123V52.0391C180.646 52.0358 180.63 52.0326 180.607 52.0293C180.584 52.026 180.568 52.0228 180.558 52.0195C180.171 51.9056 179.977 51.6517 179.977 51.2578C179.977 51.0267 180.052 50.8379 180.202 50.6914C180.355 50.5449 180.56 50.4717 180.817 50.4717C181.107 50.4717 181.336 50.5645 181.505 50.75C181.675 50.9355 181.759 51.1862 181.759 51.502C181.759 51.7786 181.714 52.0342 181.622 52.2686C181.531 52.5029 181.408 52.6999 181.251 52.8594C181.098 53.0189 180.936 53.1523 180.763 53.2598C180.591 53.3672 180.408 53.4502 180.216 53.5088ZM184.112 47.1904L182.979 46.7021C183.185 46.1325 183.533 45.6833 184.024 45.3545C184.519 45.0257 185.152 44.8613 185.924 44.8613C186.653 44.8613 187.252 45.0306 187.721 45.3691C188.189 45.7077 188.424 46.165 188.424 46.7412C188.424 47.0928 188.326 47.3971 188.131 47.6543C187.939 47.9115 187.672 48.1068 187.33 48.2402C187.708 48.3346 188.019 48.5186 188.263 48.792C188.51 49.0654 188.634 49.4284 188.634 49.8809C188.634 50.5645 188.383 51.113 187.882 51.5264C187.384 51.9365 186.734 52.1416 185.934 52.1416C185.162 52.1416 184.511 51.9854 183.98 51.6729C183.45 51.3604 183.071 50.8753 182.843 50.2178L184.063 49.7002C184.194 50.0485 184.409 50.3333 184.708 50.5547C185.007 50.7728 185.388 50.8818 185.851 50.8818C186.316 50.8818 186.666 50.7956 186.9 50.623C187.135 50.4473 187.252 50.1999 187.252 49.8809C187.252 49.3079 186.798 49.0215 185.89 49.0215H184.903V47.8203H185.733C186.166 47.8203 186.492 47.7406 186.71 47.5811C186.931 47.4215 187.042 47.2116 187.042 46.9512C187.042 46.6908 186.935 46.4873 186.72 46.3408C186.505 46.1943 186.189 46.1211 185.772 46.1211C185.346 46.1211 184.996 46.2204 184.723 46.4189C184.449 46.6175 184.246 46.8747 184.112 47.1904Z" fill="black"/><rect x="108" y="57" width="35" height="14" rx="2" fill="#23DBB0"/><path d="M148.874 63.459L147.682 63.0488C147.832 62.3685 148.169 61.8346 148.693 61.4473C149.221 61.0566 149.837 60.8613 150.544 60.8613C151.348 60.8613 151.971 61.0697 152.414 61.4863C152.86 61.8997 153.083 62.4613 153.083 63.1709C153.083 63.734 152.891 64.2533 152.507 64.7285C152.126 65.2005 151.478 65.7181 150.563 66.2812L149.982 66.6377H153.22V68H147.673V66.9014L148.752 66.1787C149.364 65.7686 149.852 65.43 150.217 65.1631C150.581 64.8929 150.879 64.6455 151.11 64.4209C151.341 64.193 151.498 63.9961 151.579 63.8301C151.66 63.6608 151.701 63.4801 151.701 63.2881C151.701 62.9365 151.589 62.6712 151.364 62.4922C151.143 62.3099 150.838 62.2188 150.451 62.2188C150.226 62.2188 150.021 62.2546 149.836 62.3262C149.653 62.3945 149.5 62.4906 149.377 62.6143C149.253 62.738 149.151 62.8682 149.069 63.0049C148.991 63.1416 148.926 63.293 148.874 63.459ZM154.65 69.5088L154.298 68.8301C154.458 68.7812 154.616 68.6901 154.772 68.5566C154.931 68.4264 155.037 68.2783 155.089 68.1123V68.0391C155.079 68.0358 155.063 68.0326 155.04 68.0293C155.018 68.026 155.001 68.0228 154.992 68.0195C154.604 67.9056 154.411 67.6517 154.411 67.2578C154.411 67.0267 154.485 66.8379 154.635 66.6914C154.788 66.5449 154.993 66.4717 155.25 66.4717C155.54 66.4717 155.77 66.5645 155.939 66.75C156.108 66.9355 156.193 67.1862 156.193 67.502C156.193 67.7786 156.147 68.0342 156.056 68.2686C155.965 68.5029 155.841 68.6999 155.685 68.8594C155.532 69.0189 155.369 69.1523 155.197 69.2598C155.024 69.3672 154.842 69.4502 154.65 69.5088ZM160.416 63.8594H160.714C161.111 63.8594 161.427 63.7796 161.661 63.6201C161.899 63.4574 162.018 63.2376 162.018 62.9609C162.018 62.6745 161.897 62.4629 161.656 62.3262C161.415 62.1895 161.044 62.1211 160.543 62.1211C159.579 62.1211 159.098 62.3978 159.098 62.9512C159.098 63.2181 159.213 63.4362 159.444 63.6055C159.675 63.7747 159.999 63.8594 160.416 63.8594ZM160.694 64.9678H160.455C159.947 64.9678 159.557 65.0589 159.283 65.2412C159.01 65.4202 158.873 65.6465 158.873 65.9199C158.873 66.2227 159.015 66.4587 159.298 66.6279C159.581 66.7972 160.001 66.8818 160.558 66.8818C161.111 66.8818 161.528 66.7988 161.808 66.6328C162.088 66.4668 162.228 66.2292 162.228 65.9199C162.228 65.6237 162.097 65.391 161.837 65.2217C161.576 65.0524 161.196 64.9678 160.694 64.9678ZM160.567 68.1416C159.578 68.1416 158.818 67.9593 158.287 67.5947C157.76 67.2269 157.496 66.7061 157.496 66.0322C157.496 65.6611 157.605 65.3258 157.823 65.0264C158.041 64.7236 158.339 64.5055 158.717 64.3721C158.395 64.2321 158.147 64.0286 157.975 63.7617C157.802 63.4948 157.716 63.2083 157.716 62.9023C157.716 62.2708 157.963 61.7728 158.458 61.4082C158.956 61.0436 159.656 60.8613 160.558 60.8613C161.489 60.8613 162.193 61.042 162.672 61.4033C163.154 61.7646 163.395 62.2643 163.395 62.9023C163.395 63.2051 163.308 63.4801 163.136 63.7275C162.966 63.9717 162.726 64.1686 162.413 64.3184C163.207 64.6178 163.604 65.1745 163.604 65.9883C163.604 66.6784 163.338 67.2106 162.804 67.585C162.273 67.9561 161.528 68.1416 160.567 68.1416Z" fill="black"/><path d="M85.2641 100V92.998H86.4848V95.8691H87.5053C87.6322 94.9902 88.0066 94.2725 88.6283 93.7158C89.2501 93.1592 90.0183 92.8809 90.933 92.8809C91.6231 92.8809 92.2318 93.0355 92.7592 93.3447C93.2865 93.654 93.6918 94.082 93.975 94.6289C94.2615 95.1758 94.4047 95.7992 94.4047 96.499C94.4047 97.1859 94.2582 97.8044 93.9652 98.3545C93.6755 98.9046 93.2654 99.3376 92.7348 99.6533C92.2074 99.9658 91.6068 100.122 90.933 100.122C89.9988 100.122 89.2175 99.8372 88.5893 99.2676C87.961 98.6947 87.5964 97.9427 87.4955 97.0117H86.4848V100H85.2641ZM88.6723 96.499C88.6723 97.2282 88.8839 97.8239 89.307 98.2861C89.7335 98.7484 90.2722 98.9795 90.9232 98.9795C91.584 98.9795 92.1195 98.7533 92.5297 98.3008C92.9398 97.8483 93.1449 97.2477 93.1449 96.499C93.1449 95.7503 92.935 95.1497 92.515 94.6973C92.0984 94.2448 91.5645 94.0186 90.9135 94.0186C90.2559 94.0186 89.7172 94.248 89.2973 94.707C88.8806 95.1628 88.6723 95.7601 88.6723 96.499ZM95.9668 100V94.7998H99.8047V95.8203H97.085V100H95.9668Z" fill="black"/><rect x="108" y="81" width="170" height="14" rx="2" fill="#0FA8E0"/><path d="M282.366 86.1016L284.627 84.998H285.579V92H284.256V86.6191L282.889 87.2295L282.366 86.1016ZM287.449 88.5576L287.84 84.998H292.552V86.3604H288.958L288.792 87.6006C289.091 87.3988 289.547 87.2979 290.159 87.2979C291.009 87.2979 291.671 87.5143 292.146 87.9473C292.622 88.3802 292.859 88.9548 292.859 89.6709C292.859 90.1592 292.739 90.5921 292.498 90.9697C292.26 91.3473 291.933 91.637 291.516 91.8389C291.103 92.0407 290.637 92.1416 290.12 92.1416C289.414 92.1416 288.803 91.9984 288.289 91.7119C287.778 91.4222 287.374 90.999 287.078 90.4424L288.25 89.7783C288.432 90.0745 288.673 90.3154 288.972 90.501C289.272 90.6865 289.617 90.7793 290.008 90.7793C290.486 90.7793 290.851 90.6784 291.101 90.4766C291.352 90.2715 291.477 90.0029 291.477 89.6709C291.477 89.3324 291.336 89.0622 291.053 88.8604C290.773 88.6585 290.392 88.5576 289.91 88.5576C289.353 88.5576 288.844 88.7122 288.382 89.0215L287.449 88.5576ZM294.216 93.5088L293.865 92.8301C294.024 92.7812 294.182 92.6901 294.338 92.5566C294.498 92.4264 294.604 92.2783 294.656 92.1123V92.0391C294.646 92.0358 294.63 92.0326 294.607 92.0293C294.584 92.026 294.568 92.0228 294.558 92.0195C294.171 91.9056 293.977 91.6517 293.977 91.2578C293.977 91.0267 294.052 90.8379 294.202 90.6914C294.355 90.5449 294.56 90.4717 294.817 90.4717C295.107 90.4717 295.336 90.5645 295.505 90.75C295.675 90.9355 295.759 91.1862 295.759 91.502C295.759 91.7786 295.714 92.0342 295.622 92.2686C295.531 92.5029 295.408 92.6999 295.251 92.8594C295.098 93.0189 294.936 93.1523 294.763 93.2598C294.591 93.3672 294.408 93.4502 294.216 93.5088ZM298.112 87.1904L296.979 86.7021C297.185 86.1325 297.533 85.6833 298.024 85.3545C298.519 85.0257 299.152 84.8613 299.924 84.8613C300.653 84.8613 301.252 85.0306 301.721 85.3691C302.189 85.7077 302.424 86.165 302.424 86.7412C302.424 87.0928 302.326 87.3971 302.131 87.6543C301.939 87.9115 301.672 88.1068 301.33 88.2402C301.708 88.3346 302.019 88.5186 302.263 88.792C302.51 89.0654 302.634 89.4284 302.634 89.8809C302.634 90.5645 302.383 91.113 301.882 91.5264C301.384 91.9365 300.734 92.1416 299.934 92.1416C299.162 92.1416 298.511 91.9854 297.98 91.6729C297.45 91.3604 297.071 90.8753 296.843 90.2178L298.063 89.7002C298.194 90.0485 298.409 90.3333 298.708 90.5547C299.007 90.7728 299.388 90.8818 299.851 90.8818C300.316 90.8818 300.666 90.7956 300.9 90.623C301.135 90.4473 301.252 90.1999 301.252 89.8809C301.252 89.3079 300.798 89.0215 299.89 89.0215H298.903V87.8203H299.733C300.166 87.8203 300.492 87.7406 300.71 87.5811C300.931 87.4215 301.042 87.2116 301.042 86.9512C301.042 86.6908 300.935 86.4873 300.72 86.3408C300.505 86.1943 300.189 86.1211 299.772 86.1211C299.346 86.1211 298.996 86.2204 298.723 86.4189C298.449 86.6175 298.246 86.8747 298.112 87.1904Z" fill="black"/><rect x="108" y="97" width="130" height="14" rx="2" fill="#23DBB0"/><path d="M243.046 102.102L245.307 100.998H246.259V108H244.936V102.619L243.569 103.229L243.046 102.102ZM247.557 102.102L249.818 100.998H250.77V108H249.447V102.619L248.08 103.229L247.557 102.102ZM252.65 109.509L252.298 108.83C252.458 108.781 252.616 108.69 252.772 108.557C252.931 108.426 253.037 108.278 253.089 108.112V108.039C253.079 108.036 253.063 108.033 253.04 108.029C253.018 108.026 253.001 108.023 252.992 108.02C252.604 107.906 252.411 107.652 252.411 107.258C252.411 107.027 252.485 106.838 252.635 106.691C252.788 106.545 252.993 106.472 253.25 106.472C253.54 106.472 253.77 106.564 253.939 106.75C254.108 106.936 254.193 107.186 254.193 107.502C254.193 107.779 254.147 108.034 254.056 108.269C253.965 108.503 253.841 108.7 253.685 108.859C253.532 109.019 253.369 109.152 253.197 109.26C253.024 109.367 252.842 109.45 252.65 109.509ZM258.416 103.859H258.714C259.111 103.859 259.427 103.78 259.661 103.62C259.899 103.457 260.018 103.238 260.018 102.961C260.018 102.674 259.897 102.463 259.656 102.326C259.415 102.189 259.044 102.121 258.543 102.121C257.579 102.121 257.098 102.398 257.098 102.951C257.098 103.218 257.213 103.436 257.444 103.605C257.675 103.775 257.999 103.859 258.416 103.859ZM258.694 104.968H258.455C257.947 104.968 257.557 105.059 257.283 105.241C257.01 105.42 256.873 105.646 256.873 105.92C256.873 106.223 257.015 106.459 257.298 106.628C257.581 106.797 258.001 106.882 258.558 106.882C259.111 106.882 259.528 106.799 259.808 106.633C260.088 106.467 260.228 106.229 260.228 105.92C260.228 105.624 260.097 105.391 259.837 105.222C259.576 105.052 259.196 104.968 258.694 104.968ZM258.567 108.142C257.578 108.142 256.818 107.959 256.287 107.595C255.76 107.227 255.496 106.706 255.496 106.032C255.496 105.661 255.605 105.326 255.823 105.026C256.041 104.724 256.339 104.506 256.717 104.372C256.395 104.232 256.147 104.029 255.975 103.762C255.802 103.495 255.716 103.208 255.716 102.902C255.716 102.271 255.963 101.773 256.458 101.408C256.956 101.044 257.656 100.861 258.558 100.861C259.489 100.861 260.193 101.042 260.672 101.403C261.154 101.765 261.395 102.264 261.395 102.902C261.395 103.205 261.308 103.48 261.136 103.728C260.966 103.972 260.726 104.169 260.413 104.318C261.207 104.618 261.604 105.174 261.604 105.988C261.604 106.678 261.338 107.211 260.804 107.585C260.273 107.956 259.528 108.142 258.567 108.142Z" fill="black"/><path d="M69.4156 140V132.998H72.4674C72.9264 132.998 73.317 133.04 73.6393 133.125C73.9648 133.21 74.2187 133.333 74.401 133.496C74.5865 133.659 74.72 133.843 74.8014 134.048C74.8827 134.253 74.9234 134.491 74.9234 134.761C74.9234 135.5 74.5979 136.012 73.9469 136.299C74.3342 136.396 74.6337 136.589 74.8453 136.875C75.0602 137.161 75.1676 137.526 75.1676 137.969C75.1676 138.32 75.1008 138.628 74.9674 138.892C74.8372 139.155 74.6484 139.367 74.401 139.526C74.1536 139.686 73.8639 139.805 73.5318 139.883C73.1998 139.961 72.8238 140 72.4039 140H69.4156ZM72.4381 136.958H70.6363V138.921H72.3746C72.9052 138.921 73.2926 138.841 73.5367 138.682C73.7841 138.522 73.9078 138.265 73.9078 137.91C73.9078 137.588 73.7906 137.349 73.5563 137.192C73.3219 137.036 72.9492 136.958 72.4381 136.958ZM72.316 134.082H70.6363V135.918H72.4137C72.8076 135.918 73.1135 135.835 73.3316 135.669C73.553 135.503 73.6637 135.277 73.6637 134.99C73.6637 134.671 73.5628 134.44 73.3609 134.297C73.1591 134.154 72.8108 134.082 72.316 134.082ZM76.4074 137.388C76.4074 136.59 76.6662 135.939 77.1838 135.435C77.7046 134.93 78.3785 134.678 79.2053 134.678C80.0386 134.678 80.7189 134.933 81.2463 135.444C81.7736 135.952 82.0373 136.6 82.0373 137.388C82.0373 138.182 81.772 138.836 81.2414 139.351C80.7141 139.865 80.0354 140.122 79.2053 140.122C78.385 140.122 77.7128 139.87 77.1887 139.365C76.6678 138.857 76.4074 138.198 76.4074 137.388ZM77.5891 137.402C77.5891 137.904 77.7388 138.312 78.0383 138.628C78.3378 138.944 78.73 139.102 79.215 139.102C79.7098 139.102 80.107 138.949 80.4064 138.643C80.7059 138.337 80.8557 137.923 80.8557 137.402C80.8557 136.891 80.6994 136.479 80.3869 136.167C80.0777 135.854 79.6838 135.698 79.2053 135.698C78.7333 135.698 78.3459 135.853 78.0432 136.162C77.7404 136.471 77.5891 136.885 77.5891 137.402ZM86.8758 140V135.82H85.035V136.099C85.035 137.492 84.8901 138.511 84.6004 139.155C84.3139 139.8 83.8501 140.122 83.2088 140.122C83.0363 140.122 82.9093 140.111 82.8279 140.088V139.028C82.8475 139.035 82.893 139.038 82.9647 139.038C83.3195 139.038 83.5734 138.81 83.7264 138.354C83.8794 137.896 83.9559 137.144 83.9559 136.099V134.8H87.9988V140H86.8758ZM89.893 140V134.8H93.7309V135.82H91.0111V140H89.893ZM95.7275 136.582L94.7656 136.26C94.9089 135.749 95.1855 135.358 95.5957 135.088C96.0059 134.814 96.5234 134.678 97.1484 134.678C97.8743 134.678 98.4229 134.867 98.7939 135.244C99.1683 135.618 99.3555 136.17 99.3555 136.899V140H98.2178V139.131C98.0876 139.421 97.8662 139.658 97.5537 139.844C97.2445 140.029 96.8815 140.122 96.4648 140.122C95.9049 140.122 95.4639 139.977 95.1416 139.688C94.8193 139.395 94.6582 139.012 94.6582 138.54C94.6582 137.951 94.9414 137.52 95.5078 137.246C96.0742 136.973 96.984 136.834 98.2373 136.831C98.2373 136.076 97.8613 135.698 97.1094 135.698C96.3802 135.698 95.9196 135.993 95.7275 136.582ZM96.7383 139.121C97.1875 139.121 97.5488 139.001 97.8223 138.76C98.099 138.516 98.2373 138.198 98.2373 137.808V137.651C97.3649 137.651 96.7464 137.713 96.3818 137.837C96.0173 137.957 95.835 138.169 95.835 138.472C95.835 138.674 95.9147 138.833 96.0742 138.95C96.237 139.064 96.4583 139.121 96.7383 139.121Z" fill="black"/><rect x="108" y="121" width="150" height="14" rx="2" fill="#0FA8E0"/><path d="M262.405 126.102L264.666 124.998H265.618V132H264.295V126.619L262.928 127.229L262.405 126.102ZM268.279 127.19L267.146 126.702C267.351 126.132 267.7 125.683 268.191 125.354C268.686 125.026 269.319 124.861 270.091 124.861C270.82 124.861 271.419 125.031 271.887 125.369C272.356 125.708 272.591 126.165 272.591 126.741C272.591 127.093 272.493 127.397 272.298 127.654C272.106 127.911 271.839 128.107 271.497 128.24C271.874 128.335 272.185 128.519 272.429 128.792C272.677 129.065 272.801 129.428 272.801 129.881C272.801 130.564 272.55 131.113 272.049 131.526C271.551 131.937 270.901 132.142 270.1 132.142C269.329 132.142 268.678 131.985 268.147 131.673C267.617 131.36 267.237 130.875 267.01 130.218L268.23 129.7C268.36 130.049 268.575 130.333 268.875 130.555C269.174 130.773 269.555 130.882 270.017 130.882C270.483 130.882 270.833 130.796 271.067 130.623C271.302 130.447 271.419 130.2 271.419 129.881C271.419 129.308 270.965 129.021 270.056 129.021H269.07V127.82H269.9C270.333 127.82 270.659 127.741 270.877 127.581C271.098 127.422 271.209 127.212 271.209 126.951C271.209 126.691 271.101 126.487 270.887 126.341C270.672 126.194 270.356 126.121 269.939 126.121C269.513 126.121 269.163 126.22 268.889 126.419C268.616 126.618 268.413 126.875 268.279 127.19ZM274.216 133.509L273.865 132.83C274.024 132.781 274.182 132.69 274.338 132.557C274.498 132.426 274.604 132.278 274.656 132.112V132.039C274.646 132.036 274.63 132.033 274.607 132.029C274.584 132.026 274.568 132.023 274.558 132.02C274.171 131.906 273.977 131.652 273.977 131.258C273.977 131.027 274.052 130.838 274.202 130.691C274.355 130.545 274.56 130.472 274.817 130.472C275.107 130.472 275.336 130.564 275.505 130.75C275.675 130.936 275.759 131.186 275.759 131.502C275.759 131.779 275.714 132.034 275.622 132.269C275.531 132.503 275.408 132.7 275.251 132.859C275.098 133.019 274.936 133.152 274.763 133.26C274.591 133.367 274.408 133.45 274.216 133.509ZM278.112 127.19L276.979 126.702C277.185 126.132 277.533 125.683 278.024 125.354C278.519 125.026 279.152 124.861 279.924 124.861C280.653 124.861 281.252 125.031 281.721 125.369C282.189 125.708 282.424 126.165 282.424 126.741C282.424 127.093 282.326 127.397 282.131 127.654C281.939 127.911 281.672 128.107 281.33 128.24C281.708 128.335 282.019 128.519 282.263 128.792C282.51 129.065 282.634 129.428 282.634 129.881C282.634 130.564 282.383 131.113 281.882 131.526C281.384 131.937 280.734 132.142 279.934 132.142C279.162 132.142 278.511 131.985 277.98 131.673C277.45 131.36 277.071 130.875 276.843 130.218L278.063 129.7C278.194 130.049 278.409 130.333 278.708 130.555C279.007 130.773 279.388 130.882 279.851 130.882C280.316 130.882 280.666 130.796 280.9 130.623C281.135 130.447 281.252 130.2 281.252 129.881C281.252 129.308 280.798 129.021 279.89 129.021H278.903V127.82H279.733C280.166 127.82 280.492 127.741 280.71 127.581C280.931 127.422 281.042 127.212 281.042 126.951C281.042 126.691 280.935 126.487 280.72 126.341C280.505 126.194 280.189 126.121 279.772 126.121C279.346 126.121 278.996 126.22 278.723 126.419C278.449 126.618 278.246 126.875 278.112 127.19Z" fill="black"/><rect x="108" y="137" width="110" height="14" rx="2" fill="#23DBB0"/><path d="M225.914 148.142C225.328 148.142 224.796 148.036 224.317 147.824C223.839 147.609 223.474 147.344 223.223 147.028L224.044 145.998C224.252 146.229 224.527 146.418 224.869 146.564C225.211 146.708 225.577 146.779 225.968 146.779C226.355 146.779 226.693 146.691 226.983 146.516C227.273 146.34 227.489 146.114 227.633 145.837C227.776 145.557 227.847 145.251 227.847 144.919V144.812C227.675 145.118 227.411 145.365 227.056 145.554C226.705 145.739 226.275 145.832 225.767 145.832C224.95 145.832 224.294 145.62 223.8 145.197C223.305 144.774 223.057 144.195 223.057 143.459C223.057 142.678 223.328 142.049 223.868 141.574C224.412 141.099 225.134 140.861 226.036 140.861C227.003 140.861 227.771 141.171 228.341 141.789C228.91 142.408 229.195 143.295 229.195 144.45C229.195 145.642 228.902 146.555 228.316 147.189C227.734 147.824 226.933 148.142 225.914 148.142ZM225.977 144.572C226.495 144.572 226.895 144.465 227.179 144.25C227.462 144.032 227.603 143.736 227.603 143.361C227.603 143.01 227.476 142.715 227.222 142.478C226.969 142.24 226.583 142.121 226.065 142.121C225.544 142.121 225.142 142.232 224.859 142.453C224.576 142.674 224.434 142.977 224.434 143.361C224.434 143.736 224.573 144.032 224.849 144.25C225.126 144.465 225.502 144.572 225.977 144.572ZM230.65 149.509L230.298 148.83C230.458 148.781 230.616 148.69 230.772 148.557C230.931 148.426 231.037 148.278 231.089 148.112V148.039C231.079 148.036 231.063 148.033 231.04 148.029C231.018 148.026 231.001 148.023 230.992 148.02C230.604 147.906 230.411 147.652 230.411 147.258C230.411 147.027 230.485 146.838 230.635 146.691C230.788 146.545 230.993 146.472 231.25 146.472C231.54 146.472 231.77 146.564 231.939 146.75C232.108 146.936 232.193 147.186 232.193 147.502C232.193 147.779 232.147 148.034 232.056 148.269C231.965 148.503 231.841 148.7 231.685 148.859C231.532 149.019 231.369 149.152 231.197 149.26C231.024 149.367 230.842 149.45 230.65 149.509ZM236.416 143.859H236.714C237.111 143.859 237.427 143.78 237.661 143.62C237.899 143.457 238.018 143.238 238.018 142.961C238.018 142.674 237.897 142.463 237.656 142.326C237.415 142.189 237.044 142.121 236.543 142.121C235.579 142.121 235.098 142.398 235.098 142.951C235.098 143.218 235.213 143.436 235.444 143.605C235.675 143.775 235.999 143.859 236.416 143.859ZM236.694 144.968H236.455C235.947 144.968 235.557 145.059 235.283 145.241C235.01 145.42 234.873 145.646 234.873 145.92C234.873 146.223 235.015 146.459 235.298 146.628C235.581 146.797 236.001 146.882 236.558 146.882C237.111 146.882 237.528 146.799 237.808 146.633C238.088 146.467 238.228 146.229 238.228 145.92C238.228 145.624 238.097 145.391 237.837 145.222C237.576 145.052 237.196 144.968 236.694 144.968ZM236.567 148.142C235.578 148.142 234.818 147.959 234.287 147.595C233.76 147.227 233.496 146.706 233.496 146.032C233.496 145.661 233.605 145.326 233.823 145.026C234.041 144.724 234.339 144.506 234.717 144.372C234.395 144.232 234.147 144.029 233.975 143.762C233.802 143.495 233.716 143.208 233.716 142.902C233.716 142.271 233.963 141.773 234.458 141.408C234.956 141.044 235.656 140.861 236.558 140.861C237.489 140.861 238.193 141.042 238.672 141.403C239.154 141.765 239.395 142.264 239.395 142.902C239.395 143.205 239.308 143.48 239.136 143.728C238.966 143.972 238.726 144.169 238.413 144.318C239.207 144.618 239.604 145.174 239.604 145.988C239.604 146.678 239.338 147.211 238.804 147.585C238.273 147.956 237.528 148.142 236.567 148.142Z" fill="black"/><path d="M76.4563 180.122C76.2479 180.122 76.0347 180.101 75.8166 180.059V178.892C76.0673 178.95 76.2609 178.979 76.3977 178.979C76.5474 178.979 76.6695 178.929 76.7639 178.828C76.8583 178.724 76.9755 178.517 77.1154 178.208L73.9953 172.998H75.4748L77.7258 176.958L79.6057 172.998H80.8654L78.0871 178.779C77.8462 179.284 77.6086 179.634 77.3742 179.829C77.1398 180.024 76.8339 180.122 76.4563 180.122ZM84.4539 180.122C84.034 180.122 83.671 180.047 83.365 179.897C83.0591 179.748 82.8149 179.546 82.6326 179.292V182.002H81.5145V174.8H82.6326V175.62C82.8051 175.33 83.0525 175.101 83.3748 174.932C83.6971 174.762 84.0698 174.678 84.493 174.678C85.2287 174.678 85.8292 174.919 86.2947 175.4C86.7602 175.879 86.993 176.525 86.993 177.339C86.993 178.172 86.7553 178.844 86.2801 179.355C85.8081 179.867 85.1994 180.122 84.4539 180.122ZM83.0867 178.672C83.3927 178.958 83.7785 179.102 84.2439 179.102C84.7094 179.102 85.087 178.947 85.3768 178.638C85.6665 178.328 85.8113 177.909 85.8113 177.378C85.8113 176.86 85.6632 176.452 85.367 176.152C85.074 175.85 84.6964 175.698 84.2342 175.698C83.7524 175.698 83.365 175.843 83.0721 176.133C82.7791 176.423 82.6326 176.818 82.6326 177.319V177.48C82.6326 177.985 82.784 178.382 83.0867 178.672ZM89.2338 176.582L88.2719 176.26C88.4151 175.749 88.6918 175.358 89.102 175.088C89.5121 174.814 90.0297 174.678 90.6547 174.678C91.3806 174.678 91.9291 174.867 92.3002 175.244C92.6746 175.618 92.8617 176.17 92.8617 176.899V180H91.724V179.131C91.5938 179.421 91.3725 179.658 91.06 179.844C90.7507 180.029 90.3878 180.122 89.9711 180.122C89.4112 180.122 88.9701 179.977 88.6479 179.688C88.3256 179.395 88.1645 179.012 88.1645 178.54C88.1645 177.951 88.4477 177.52 89.0141 177.246C89.5805 176.973 90.4903 176.834 91.7436 176.831C91.7436 176.076 91.3676 175.698 90.6156 175.698C89.8865 175.698 89.4259 175.993 89.2338 176.582ZM90.2445 179.121C90.6938 179.121 91.0551 179.001 91.3285 178.76C91.6052 178.516 91.7436 178.198 91.7436 177.808V177.651C90.8712 177.651 90.2527 177.713 89.8881 177.837C89.5235 177.957 89.3412 178.169 89.3412 178.472C89.3412 178.674 89.421 178.833 89.5805 178.95C89.7432 179.064 89.9646 179.121 90.2445 179.121ZM98.125 180V175.82H96.2842V176.099C96.2842 177.492 96.1393 178.511 95.8496 179.155C95.5632 179.8 95.0993 180.122 94.458 180.122C94.2855 180.122 94.1585 180.111 94.0771 180.088V179.028C94.0967 179.035 94.1423 179.038 94.2139 179.038C94.5687 179.038 94.8226 178.81 94.9756 178.354C95.1286 177.896 95.2051 177.144 95.2051 176.099V174.8H99.248V180H98.125Z" fill="black"/><rect x="108" y="161" width="160" height="14" rx="2" fill="#0FA8E0"/><path d="M272.493 166.102L274.754 164.998H275.706V172H274.383V166.619L273.016 167.229L272.493 166.102ZM281.116 172V170.862H277.137V169.808L281.316 164.998H282.434V169.5H283.548V170.862H282.434V172H281.116ZM278.875 169.5H281.116V167.068L278.875 169.5ZM284.89 173.509L284.538 172.83C284.698 172.781 284.856 172.69 285.012 172.557C285.172 172.426 285.277 172.278 285.329 172.112V172.039C285.32 172.036 285.303 172.033 285.281 172.029C285.258 172.026 285.242 172.023 285.232 172.02C284.844 171.906 284.651 171.652 284.651 171.258C284.651 171.027 284.726 170.838 284.875 170.691C285.028 170.545 285.233 170.472 285.491 170.472C285.78 170.472 286.01 170.564 286.179 170.75C286.348 170.936 286.433 171.186 286.433 171.502C286.433 171.779 286.387 172.034 286.296 172.269C286.205 172.503 286.081 172.7 285.925 172.859C285.772 173.019 285.609 173.152 285.437 173.26C285.264 173.367 285.082 173.45 284.89 173.509ZM287.497 166.36V164.998H292.854V165.95L289.797 172H288.356L291.296 166.36H287.497Z" fill="black"/><rect x="108" y="177" width="140" height="14" rx="2" fill="#23DBB0"/><path d="M252.859 182.102L255.119 180.998H256.071V188H254.748V182.619L253.381 183.229L252.859 182.102ZM258.874 183.459L257.682 183.049C257.832 182.368 258.169 181.835 258.693 181.447C259.221 181.057 259.837 180.861 260.544 180.861C261.348 180.861 261.971 181.07 262.414 181.486C262.86 181.9 263.083 182.461 263.083 183.171C263.083 183.734 262.891 184.253 262.507 184.729C262.126 185.201 261.478 185.718 260.563 186.281L259.982 186.638H263.22V188H257.673V186.901L258.752 186.179C259.364 185.769 259.852 185.43 260.217 185.163C260.581 184.893 260.879 184.646 261.11 184.421C261.341 184.193 261.498 183.996 261.579 183.83C261.66 183.661 261.701 183.48 261.701 183.288C261.701 182.937 261.589 182.671 261.364 182.492C261.143 182.31 260.838 182.219 260.451 182.219C260.226 182.219 260.021 182.255 259.836 182.326C259.653 182.395 259.5 182.491 259.377 182.614C259.253 182.738 259.151 182.868 259.069 183.005C258.991 183.142 258.926 183.293 258.874 183.459ZM264.65 189.509L264.298 188.83C264.458 188.781 264.616 188.69 264.772 188.557C264.931 188.426 265.037 188.278 265.089 188.112V188.039C265.079 188.036 265.063 188.033 265.04 188.029C265.018 188.026 265.001 188.023 264.992 188.02C264.604 187.906 264.411 187.652 264.411 187.258C264.411 187.027 264.485 186.838 264.635 186.691C264.788 186.545 264.993 186.472 265.25 186.472C265.54 186.472 265.77 186.564 265.939 186.75C266.108 186.936 266.193 187.186 266.193 187.502C266.193 187.779 266.147 188.034 266.056 188.269C265.965 188.503 265.841 188.7 265.685 188.859C265.532 189.019 265.369 189.152 265.197 189.26C265.024 189.367 264.842 189.45 264.65 189.509ZM270.416 183.859H270.714C271.111 183.859 271.427 183.78 271.661 183.62C271.899 183.457 272.018 183.238 272.018 182.961C272.018 182.674 271.897 182.463 271.656 182.326C271.415 182.189 271.044 182.121 270.543 182.121C269.579 182.121 269.098 182.398 269.098 182.951C269.098 183.218 269.213 183.436 269.444 183.605C269.675 183.775 269.999 183.859 270.416 183.859ZM270.694 184.968H270.455C269.947 184.968 269.557 185.059 269.283 185.241C269.01 185.42 268.873 185.646 268.873 185.92C268.873 186.223 269.015 186.459 269.298 186.628C269.581 186.797 270.001 186.882 270.558 186.882C271.111 186.882 271.528 186.799 271.808 186.633C272.088 186.467 272.228 186.229 272.228 185.92C272.228 185.624 272.097 185.391 271.837 185.222C271.576 185.052 271.196 184.968 270.694 184.968ZM270.567 188.142C269.578 188.142 268.818 187.959 268.287 187.595C267.76 187.227 267.496 186.706 267.496 186.032C267.496 185.661 267.605 185.326 267.823 185.026C268.041 184.724 268.339 184.506 268.717 184.372C268.395 184.232 268.147 184.029 267.975 183.762C267.802 183.495 267.716 183.208 267.716 182.902C267.716 182.271 267.963 181.773 268.458 181.408C268.956 181.044 269.656 180.861 270.558 180.861C271.489 180.861 272.193 181.042 272.672 181.403C273.154 181.765 273.395 182.264 273.395 182.902C273.395 183.205 273.308 183.48 273.136 183.728C272.966 183.972 272.726 184.169 272.413 184.318C273.207 184.618 273.604 185.174 273.604 185.988C273.604 186.678 273.338 187.211 272.804 187.585C272.273 187.956 271.528 188.142 270.567 188.142Z" fill="black"/><path d="M65.2949 210.72L66.3545 211.101C66.0876 211.726 65.666 212.219 65.0898 212.58C64.5169 212.941 63.8643 213.122 63.1318 213.122C62.445 213.122 61.8281 212.967 61.2812 212.658C60.7344 212.349 60.3079 211.919 60.002 211.369C59.696 210.816 59.543 210.192 59.543 209.499C59.543 208.812 59.6976 208.194 60.0068 207.644C60.3193 207.09 60.7523 206.659 61.3057 206.35C61.8623 206.037 62.4873 205.881 63.1807 205.881C63.8968 205.881 64.5413 206.066 65.1143 206.438C65.6904 206.809 66.0859 207.297 66.3008 207.902L65.2412 208.278C64.7887 207.438 64.1019 207.019 63.1807 207.019C62.4808 207.019 61.9095 207.25 61.4668 207.712C61.0241 208.174 60.8027 208.77 60.8027 209.499C60.8027 210.218 61.0257 210.812 61.4717 211.281C61.9209 211.747 62.4906 211.979 63.1807 211.979C63.6494 211.979 64.0677 211.869 64.4355 211.647C64.8066 211.426 65.0931 211.117 65.2949 210.72ZM68.7906 213H67.8043V207.8H68.9225V211.301L71.7398 207.8H72.7408V213H71.6227V209.499L68.7906 213ZM77.1789 213.122C76.287 213.122 75.5953 212.839 75.1037 212.272C74.6122 211.703 74.3664 210.905 74.3664 209.88C74.3664 208.757 74.4445 207.924 74.6008 207.38C74.757 206.833 75.0321 206.433 75.426 206.179C75.5204 206.117 75.618 206.063 75.7189 206.018C75.8231 205.972 75.9338 205.936 76.051 205.91C76.1714 205.881 76.2756 205.858 76.3635 205.842C76.4546 205.822 76.5702 205.811 76.7102 205.808C76.8501 205.801 76.9543 205.798 77.0227 205.798C77.091 205.795 77.2017 205.795 77.3547 205.798C77.5109 205.798 77.6119 205.798 77.6574 205.798C77.996 205.798 78.2157 205.777 78.3166 205.734C78.4208 205.689 78.4777 205.594 78.4875 205.451H79.4592C79.4592 205.985 79.3453 206.351 79.1174 206.55C78.8895 206.748 78.4696 206.848 77.8576 206.848C77.7762 206.848 77.646 206.846 77.467 206.843C77.2912 206.836 77.1545 206.835 77.0568 206.838C76.9624 206.838 76.8453 206.844 76.7053 206.857C76.5686 206.867 76.4432 206.892 76.3293 206.931C76.2186 206.97 76.1145 207.02 76.0168 207.082C75.802 207.215 75.6506 207.416 75.5627 207.683C75.4781 207.946 75.426 208.376 75.4064 208.972C75.6115 208.643 75.8882 208.389 76.2365 208.21C76.5848 208.031 76.9787 207.941 77.4182 207.941C78.1571 207.941 78.7479 208.169 79.1906 208.625C79.6366 209.081 79.8596 209.686 79.8596 210.441C79.8596 211.223 79.6089 211.866 79.1076 212.37C78.6063 212.871 77.9634 213.122 77.1789 213.122ZM76.007 211.628C76.3033 211.944 76.6874 212.102 77.1594 212.102C77.6314 212.102 78.0025 211.958 78.2727 211.672C78.5428 211.385 78.6779 210.995 78.6779 210.5C78.6779 210.038 78.5396 209.667 78.2629 209.387C77.9895 209.104 77.6249 208.962 77.1691 208.962C76.6971 208.962 76.3114 209.097 76.0119 209.367C75.7157 209.634 75.5676 209.979 75.5676 210.402C75.5676 210.904 75.7141 211.312 76.007 211.628ZM82.3738 213H81.3875V207.8H82.5057V211.301L85.323 207.8H86.324V213H85.2059V209.499L82.3738 213ZM91.143 213.122C90.723 213.122 90.3601 213.047 90.0541 212.897C89.7481 212.748 89.504 212.546 89.3217 212.292V215.002H88.2035V207.8H89.3217V208.62C89.4942 208.33 89.7416 208.101 90.0639 207.932C90.3861 207.762 90.7589 207.678 91.182 207.678C91.9177 207.678 92.5183 207.919 92.9838 208.4C93.4493 208.879 93.682 209.525 93.682 210.339C93.682 211.172 93.4444 211.844 92.9691 212.355C92.4971 212.867 91.8884 213.122 91.143 213.122ZM89.7758 211.672C90.0818 211.958 90.4675 212.102 90.933 212.102C91.3985 212.102 91.7761 211.947 92.0658 211.638C92.3555 211.328 92.5004 210.909 92.5004 210.378C92.5004 209.86 92.3523 209.452 92.0561 209.152C91.7631 208.85 91.3855 208.698 90.9232 208.698C90.4415 208.698 90.0541 208.843 89.7611 209.133C89.4682 209.423 89.3217 209.818 89.3217 210.319V210.48C89.3217 210.985 89.473 211.382 89.7758 211.672ZM95.2246 213V207.8H96.3428V209.328H97.5342C97.9346 209.328 98.278 209.377 98.5645 209.475C98.8542 209.569 99.0788 209.702 99.2383 209.875C99.3978 210.048 99.5133 210.238 99.585 210.446C99.6566 210.655 99.6924 210.889 99.6924 211.149C99.6924 211.41 99.6533 211.647 99.5752 211.862C99.4971 212.074 99.3734 212.268 99.2041 212.443C99.0381 212.619 98.807 212.756 98.5107 212.854C98.2145 212.951 97.8646 213 97.4609 213H95.2246ZM97.4023 210.349H96.3428V211.979H97.3926C97.7865 211.979 98.0713 211.911 98.2471 211.774C98.4229 211.638 98.5107 211.433 98.5107 211.159C98.5107 210.619 98.1413 210.349 97.4023 210.349ZM3.35547 227H2.36914V221.8H3.4873V225.301L6.30469 221.8H7.30566V227H6.1875V223.499L3.35547 227ZM11.5773 228.25V225.862H12.3293C12.5995 225.39 12.8062 224.772 12.9494 224.007C13.0959 223.239 13.1691 222.369 13.1691 221.399V219.998H18.1105V225.862H18.9895V228.25H17.8273V227H12.7395V228.25H11.5773ZM14.3264 221.141V221.399C14.3264 222.304 14.2613 223.16 14.1311 223.968C14.0008 224.775 13.8234 225.407 13.5988 225.862H16.8898V221.141H14.3264ZM20.9959 223.582L20.034 223.26C20.1772 222.749 20.4539 222.358 20.8641 222.088C21.2742 221.814 21.7918 221.678 22.4168 221.678C23.1427 221.678 23.6912 221.867 24.0623 222.244C24.4367 222.618 24.6238 223.17 24.6238 223.899V227H23.4861V226.131C23.3559 226.421 23.1346 226.658 22.8221 226.844C22.5128 227.029 22.1499 227.122 21.7332 227.122C21.1733 227.122 20.7322 226.977 20.41 226.688C20.0877 226.395 19.9266 226.012 19.9266 225.54C19.9266 224.951 20.2098 224.52 20.7762 224.246C21.3426 223.973 22.2524 223.834 23.5057 223.831C23.5057 223.076 23.1297 222.698 22.3777 222.698C21.6486 222.698 21.188 222.993 20.9959 223.582ZM22.0066 226.121C22.4559 226.121 22.8172 226.001 23.0906 225.76C23.3673 225.516 23.5057 225.198 23.5057 224.808V224.651C22.6333 224.651 22.0148 224.713 21.6502 224.837C21.2856 224.957 21.1033 225.169 21.1033 225.472C21.1033 225.674 21.1831 225.833 21.3426 225.95C21.5053 226.064 21.7267 226.121 22.0066 226.121ZM29.8871 227V222.82H28.0463V223.099C28.0463 224.492 27.9014 225.511 27.6117 226.155C27.3253 226.8 26.8614 227.122 26.2201 227.122C26.0476 227.122 25.9206 227.111 25.8393 227.088V226.028C25.8588 226.035 25.9044 226.038 25.976 226.038C26.3308 226.038 26.5847 225.81 26.7377 225.354C26.8907 224.896 26.9672 224.144 26.9672 223.099V221.8H31.0102V227H29.8871ZM32.9043 227V221.8H34.0225V223.328H35.2139C35.6143 223.328 35.9577 223.377 36.2441 223.475C36.5339 223.569 36.7585 223.702 36.918 223.875C37.0775 224.048 37.193 224.238 37.2646 224.446C37.3363 224.655 37.3721 224.889 37.3721 225.149C37.3721 225.41 37.333 225.647 37.2549 225.862C37.1768 226.074 37.0531 226.268 36.8838 226.443C36.7178 226.619 36.4867 226.756 36.1904 226.854C35.8942 226.951 35.5443 227 35.1406 227H32.9043ZM35.082 224.349H34.0225V225.979H35.0723C35.4661 225.979 35.751 225.911 35.9268 225.774C36.1025 225.638 36.1904 225.433 36.1904 225.159C36.1904 224.619 35.821 224.349 35.082 224.349ZM42.5816 227V224.871H39.94V227H38.8219V221.8H39.94V223.851H42.5816V221.8H43.6998V227H42.5816ZM46.5656 227H45.5793V221.8H46.6975V225.301L49.5148 221.8H50.5158V227H49.3977V223.499L46.5656 227ZM53.3816 227H52.3953V221.8H53.5135V225.301L56.3309 221.8H57.3318V227H56.2137V223.499L53.3816 227ZM53.1033 219.598H54.1238C54.1238 219.822 54.1889 220.011 54.3191 220.164C54.4493 220.314 54.6333 220.389 54.8709 220.389C55.0955 220.389 55.2713 220.314 55.3982 220.164C55.5285 220.011 55.5936 219.822 55.5936 219.598H56.6141C56.6141 220.089 56.4513 220.483 56.1258 220.779C55.8035 221.072 55.3901 221.219 54.8855 221.219C54.3712 221.219 53.9448 221.074 53.6063 220.784C53.271 220.491 53.1033 220.096 53.1033 219.598ZM62.4043 227V219.998H65.4561C65.915 219.998 66.3057 220.04 66.6279 220.125C66.9535 220.21 67.2074 220.333 67.3896 220.496C67.5752 220.659 67.7087 220.843 67.79 221.048C67.8714 221.253 67.9121 221.491 67.9121 221.761C67.9121 222.5 67.5866 223.012 66.9355 223.299C67.3229 223.396 67.6224 223.589 67.834 223.875C68.0488 224.161 68.1562 224.526 68.1562 224.969C68.1562 225.32 68.0895 225.628 67.9561 225.892C67.8258 226.155 67.637 226.367 67.3896 226.526C67.1423 226.686 66.8525 226.805 66.5205 226.883C66.1885 226.961 65.8125 227 65.3926 227H62.4043ZM65.4268 223.958H63.625V225.921H65.3633C65.8939 225.921 66.2812 225.841 66.5254 225.682C66.7728 225.522 66.8965 225.265 66.8965 224.91C66.8965 224.588 66.7793 224.349 66.5449 224.192C66.3105 224.036 65.9378 223.958 65.4268 223.958ZM65.3047 221.082H63.625V222.918H65.4023C65.7962 222.918 66.1022 222.835 66.3203 222.669C66.5417 222.503 66.6523 222.277 66.6523 221.99C66.6523 221.671 66.5514 221.44 66.3496 221.297C66.1478 221.154 65.7995 221.082 65.3047 221.082ZM69.3961 224.388C69.3961 223.59 69.6549 222.939 70.1725 222.435C70.6933 221.93 71.3671 221.678 72.1939 221.678C73.0273 221.678 73.7076 221.933 74.235 222.444C74.7623 222.952 75.026 223.6 75.026 224.388C75.026 225.182 74.7607 225.836 74.2301 226.351C73.7027 226.865 73.024 227.122 72.1939 227.122C71.3736 227.122 70.7014 226.87 70.1773 226.365C69.6565 225.857 69.3961 225.198 69.3961 224.388ZM70.5777 224.402C70.5777 224.904 70.7275 225.312 71.027 225.628C71.3264 225.944 71.7187 226.102 72.2037 226.102C72.6985 226.102 73.0956 225.949 73.3951 225.643C73.6946 225.337 73.8443 224.923 73.8443 224.402C73.8443 223.891 73.6881 223.479 73.3756 223.167C73.0663 222.854 72.6725 222.698 72.1939 222.698C71.7219 222.698 71.3346 222.853 71.0318 223.162C70.7291 223.471 70.5777 223.885 70.5777 224.402ZM80.4602 225.218L81.4221 225.54C81.2463 226.035 80.9436 226.422 80.5139 226.702C80.0874 226.982 79.5796 227.122 78.9904 227.122C78.1669 227.122 77.4979 226.87 76.9836 226.365C76.4693 225.857 76.2121 225.198 76.2121 224.388C76.2121 223.584 76.4676 222.931 76.9787 222.43C77.493 221.928 78.1604 221.678 78.9807 221.678C79.5568 221.678 80.0581 221.816 80.4846 222.093C80.911 222.369 81.2268 222.758 81.4318 223.26L80.4699 223.582C80.2974 223.279 80.0956 223.056 79.8645 222.913C79.6333 222.77 79.355 222.698 79.0295 222.698C78.538 222.698 78.1425 222.854 77.843 223.167C77.5435 223.476 77.3938 223.883 77.3938 224.388C77.3938 224.892 77.5451 225.304 77.8479 225.623C78.1538 225.942 78.5477 226.102 79.0295 226.102C79.661 226.102 80.1379 225.807 80.4602 225.218ZM82.3006 222.82V221.8H87.032V222.82H85.2205V227H84.0975V222.82H82.3006ZM87.8031 224.388C87.8031 223.59 88.0619 222.939 88.5795 222.435C89.1003 221.93 89.7742 221.678 90.601 221.678C91.4343 221.678 92.1146 221.933 92.642 222.444C93.1693 222.952 93.433 223.6 93.433 224.388C93.433 225.182 93.1677 225.836 92.6371 226.351C92.1098 226.865 91.4311 227.122 90.601 227.122C89.7807 227.122 89.1085 226.87 88.5844 226.365C88.0635 225.857 87.8031 225.198 87.8031 224.388ZM88.9848 224.402C88.9848 224.904 89.1345 225.312 89.434 225.628C89.7335 225.944 90.1257 226.102 90.6107 226.102C91.1055 226.102 91.5027 225.949 91.8021 225.643C92.1016 225.337 92.2514 224.923 92.2514 224.402C92.2514 223.891 92.0951 223.479 91.7826 223.167C91.4734 222.854 91.0795 222.698 90.601 222.698C90.129 222.698 89.7416 222.853 89.4389 223.162C89.1361 223.471 88.9848 223.885 88.9848 224.402ZM94.9707 227V221.8H96.0889V224.041L98.3594 221.8H99.8096L97.3584 224.168L99.9072 227H98.4863L96.4697 224.778L96.0889 225.169V227H94.9707Z" fill="black"/><rect x="108" y="201" width="175" height="14" rx="2" fill="#0FA8E0"/><path d="M287.82 206.102L290.08 204.998H291.032V212H289.709V206.619L288.342 207.229L287.82 206.102ZM292.902 208.558L293.293 204.998H298.005V206.36H294.411L294.245 207.601C294.544 207.399 295 207.298 295.612 207.298C296.462 207.298 297.124 207.514 297.599 207.947C298.075 208.38 298.312 208.955 298.312 209.671C298.312 210.159 298.192 210.592 297.951 210.97C297.713 211.347 297.386 211.637 296.97 211.839C296.556 212.041 296.091 212.142 295.573 212.142C294.867 212.142 294.256 211.998 293.742 211.712C293.231 211.422 292.827 210.999 292.531 210.442L293.703 209.778C293.885 210.075 294.126 210.315 294.426 210.501C294.725 210.687 295.07 210.779 295.461 210.779C295.939 210.779 296.304 210.678 296.554 210.477C296.805 210.271 296.93 210.003 296.93 209.671C296.93 209.332 296.789 209.062 296.506 208.86C296.226 208.659 295.845 208.558 295.363 208.558C294.806 208.558 294.297 208.712 293.835 209.021L292.902 208.558ZM299.669 213.509L299.318 212.83C299.477 212.781 299.635 212.69 299.791 212.557C299.951 212.426 300.057 212.278 300.109 212.112V212.039C300.099 212.036 300.083 212.033 300.06 212.029C300.037 212.026 300.021 212.023 300.011 212.02C299.624 211.906 299.43 211.652 299.43 211.258C299.43 211.027 299.505 210.838 299.655 210.691C299.808 210.545 300.013 210.472 300.27 210.472C300.56 210.472 300.789 210.564 300.958 210.75C301.128 210.936 301.212 211.186 301.212 211.502C301.212 211.779 301.167 212.034 301.076 212.269C300.984 212.503 300.861 212.7 300.704 212.859C300.551 213.019 300.389 213.152 300.216 213.26C300.044 213.367 299.861 213.45 299.669 213.509ZM305.763 212.142C305.281 212.142 304.843 212.067 304.449 211.917C304.059 211.764 303.722 211.541 303.438 211.248C303.155 210.955 302.936 210.582 302.779 210.13C302.623 209.674 302.545 209.155 302.545 208.572C302.545 207.97 302.625 207.433 302.784 206.961C302.944 206.489 303.168 206.1 303.458 205.794C303.748 205.488 304.091 205.257 304.488 205.101C304.889 204.941 305.331 204.861 305.816 204.861C306.419 204.861 306.943 204.977 307.389 205.208C307.838 205.439 308.186 205.766 308.434 206.189L307.574 207.049C307.148 206.495 306.559 206.219 305.807 206.219C305.208 206.219 304.739 206.406 304.4 206.78C304.065 207.155 303.893 207.625 303.883 208.191V208.27C304.059 207.944 304.329 207.687 304.693 207.498C305.058 207.306 305.484 207.21 305.973 207.21C306.806 207.21 307.464 207.42 307.945 207.84C308.43 208.257 308.673 208.839 308.673 209.588C308.673 210.343 308.403 210.958 307.862 211.434C307.325 211.906 306.625 212.142 305.763 212.142ZM305.694 210.882C306.199 210.882 306.591 210.768 306.871 210.54C307.154 210.312 307.296 210.003 307.296 209.612C307.296 209.257 307.162 208.979 306.896 208.777C306.629 208.572 306.266 208.47 305.807 208.47C305.276 208.47 304.868 208.571 304.581 208.772C304.298 208.971 304.156 209.246 304.156 209.598C304.156 209.972 304.288 210.28 304.552 210.521C304.819 210.761 305.2 210.882 305.694 210.882Z" fill="black"/><rect x="108" y="217" width="125" height="14" rx="2" fill="#23DBB0"/><path d="M237.612 222.102L239.873 220.998H240.825V228H239.502V222.619L238.135 223.229L237.612 222.102ZM242.124 222.102L244.385 220.998H245.337V228H244.013V222.619L242.646 223.229L242.124 222.102ZM247.216 229.509L246.865 228.83C247.024 228.781 247.182 228.69 247.338 228.557C247.498 228.426 247.604 228.278 247.656 228.112V228.039C247.646 228.036 247.63 228.033 247.607 228.029C247.584 228.026 247.568 228.023 247.558 228.02C247.171 227.906 246.977 227.652 246.977 227.258C246.977 227.027 247.052 226.838 247.202 226.691C247.355 226.545 247.56 226.472 247.817 226.472C248.107 226.472 248.336 226.564 248.505 226.75C248.675 226.936 248.759 227.186 248.759 227.502C248.759 227.779 248.714 228.034 248.622 228.269C248.531 228.503 248.408 228.7 248.251 228.859C248.098 229.019 247.936 229.152 247.763 229.26C247.591 229.367 247.408 229.45 247.216 229.509ZM251.112 223.19L249.979 222.702C250.185 222.132 250.533 221.683 251.024 221.354C251.519 221.026 252.152 220.861 252.924 220.861C253.653 220.861 254.252 221.031 254.721 221.369C255.189 221.708 255.424 222.165 255.424 222.741C255.424 223.093 255.326 223.397 255.131 223.654C254.939 223.911 254.672 224.107 254.33 224.24C254.708 224.335 255.019 224.519 255.263 224.792C255.51 225.065 255.634 225.428 255.634 225.881C255.634 226.564 255.383 227.113 254.882 227.526C254.384 227.937 253.734 228.142 252.934 228.142C252.162 228.142 251.511 227.985 250.98 227.673C250.45 227.36 250.071 226.875 249.843 226.218L251.063 225.7C251.194 226.049 251.409 226.333 251.708 226.555C252.007 226.773 252.388 226.882 252.851 226.882C253.316 226.882 253.666 226.796 253.9 226.623C254.135 226.447 254.252 226.2 254.252 225.881C254.252 225.308 253.798 225.021 252.89 225.021H251.903V223.82H252.733C253.166 223.82 253.492 223.741 253.71 223.581C253.931 223.422 254.042 223.212 254.042 222.951C254.042 222.691 253.935 222.487 253.72 222.341C253.505 222.194 253.189 222.121 252.772 222.121C252.346 222.121 251.996 222.22 251.723 222.419C251.449 222.618 251.246 222.875 251.112 223.19Z" fill="black"/><path d="M60.3047 260V252.998H62.1162L63.9668 258.071L65.7051 252.998H67.4629V260H66.2471V254.541L64.2842 260H63.5566L61.5254 254.561V260H60.3047ZM69.0934 257.388C69.0934 256.59 69.3521 255.939 69.8697 255.435C70.3906 254.93 71.0644 254.678 71.8912 254.678C72.7245 254.678 73.4049 254.933 73.9322 255.444C74.4596 255.952 74.7232 256.6 74.7232 257.388C74.7232 258.182 74.4579 258.836 73.9273 259.351C73.4 259.865 72.7213 260.122 71.8912 260.122C71.0709 260.122 70.3987 259.87 69.8746 259.365C69.3538 258.857 69.0934 258.198 69.0934 257.388ZM70.275 257.402C70.275 257.904 70.4247 258.312 70.7242 258.628C71.0237 258.944 71.416 259.102 71.901 259.102C72.3958 259.102 72.7929 258.949 73.0924 258.643C73.3919 258.337 73.5416 257.923 73.5416 257.402C73.5416 256.891 73.3854 256.479 73.0729 256.167C72.7636 255.854 72.3697 255.698 71.8912 255.698C71.4192 255.698 71.0318 255.853 70.7291 256.162C70.4264 256.471 70.275 256.885 70.275 257.402ZM80.1574 258.218L81.1193 258.54C80.9436 259.035 80.6408 259.422 80.2111 259.702C79.7847 259.982 79.2769 260.122 78.6877 260.122C77.8641 260.122 77.1952 259.87 76.6809 259.365C76.1665 258.857 75.9094 258.198 75.9094 257.388C75.9094 256.584 76.1649 255.931 76.676 255.43C77.1903 254.928 77.8576 254.678 78.6779 254.678C79.2541 254.678 79.7554 254.816 80.1818 255.093C80.6083 255.369 80.924 255.758 81.1291 256.26L80.1672 256.582C79.9947 256.279 79.7928 256.056 79.5617 255.913C79.3306 255.77 79.0523 255.698 78.7268 255.698C78.2352 255.698 77.8397 255.854 77.5402 256.167C77.2408 256.476 77.091 256.883 77.091 257.388C77.091 257.892 77.2424 258.304 77.5451 258.623C77.8511 258.942 78.245 259.102 78.7268 259.102C79.3583 259.102 79.8352 258.807 80.1574 258.218ZM82.5691 260V254.8H83.6873V257.041L85.9578 254.8H87.408L84.9568 257.168L87.5057 260H86.0848L84.0682 257.778L83.6873 258.169V260H82.5691ZM88.7406 260V254.8H91.1479C91.8705 254.8 92.3979 254.904 92.7299 255.112C93.0619 255.321 93.2279 255.667 93.2279 256.152C93.2279 256.403 93.1547 256.626 93.0082 256.821C92.865 257.013 92.6713 257.153 92.4271 257.241C92.7429 257.316 92.9887 257.466 93.1645 257.69C93.3402 257.912 93.4281 258.172 93.4281 258.472C93.4281 258.963 93.2491 259.341 92.891 259.604C92.5329 259.868 92.0121 260 91.3285 260H88.7406ZM91.2406 257.822H89.8588V259.038H91.1576C91.5189 259.038 91.7908 258.988 91.973 258.887C92.1553 258.786 92.2465 258.626 92.2465 258.408C92.2465 258.203 92.1651 258.055 92.0023 257.964C91.8396 257.869 91.5857 257.822 91.2406 257.822ZM91.0502 255.762H89.8588V256.899H91.2797C91.5206 256.899 91.7077 256.851 91.8412 256.753C91.9779 256.655 92.0463 256.51 92.0463 256.318C92.0463 256.104 91.9633 255.957 91.7973 255.879C91.6312 255.801 91.3822 255.762 91.0502 255.762ZM95.7275 256.582L94.7656 256.26C94.9089 255.749 95.1855 255.358 95.5957 255.088C96.0059 254.814 96.5234 254.678 97.1484 254.678C97.8743 254.678 98.4229 254.867 98.7939 255.244C99.1683 255.618 99.3555 256.17 99.3555 256.899V260H98.2178V259.131C98.0876 259.421 97.8662 259.658 97.5537 259.844C97.2445 260.029 96.8815 260.122 96.4648 260.122C95.9049 260.122 95.4639 259.977 95.1416 259.688C94.8193 259.395 94.6582 259.012 94.6582 258.54C94.6582 257.951 94.9414 257.52 95.5078 257.246C96.0742 256.973 96.984 256.834 98.2373 256.831C98.2373 256.076 97.8613 255.698 97.1094 255.698C96.3802 255.698 95.9196 255.993 95.7275 256.582ZM96.7383 259.121C97.1875 259.121 97.5488 259.001 97.8223 258.76C98.099 258.516 98.2373 258.198 98.2373 257.808V257.651C97.3649 257.651 96.7464 257.713 96.3818 257.837C96.0173 257.957 95.835 258.169 95.835 258.472C95.835 258.674 95.9147 258.833 96.0742 258.95C96.237 259.064 96.4583 259.121 96.7383 259.121Z" fill="black"/><rect x="108" y="241" width="35" height="14" rx="2" fill="#0FA8E0"/><path d="M149.299 247.19L148.166 246.702C148.371 246.132 148.719 245.683 149.211 245.354C149.706 245.026 150.339 244.861 151.11 244.861C151.839 244.861 152.438 245.031 152.907 245.369C153.376 245.708 153.61 246.165 153.61 246.741C153.61 247.093 153.513 247.397 153.317 247.654C153.125 247.911 152.858 248.107 152.516 248.24C152.894 248.335 153.205 248.519 153.449 248.792C153.696 249.065 153.82 249.428 153.82 249.881C153.82 250.564 153.569 251.113 153.068 251.526C152.57 251.937 151.921 252.142 151.12 252.142C150.348 252.142 149.697 251.985 149.167 251.673C148.636 251.36 148.257 250.875 148.029 250.218L149.25 249.7C149.38 250.049 149.595 250.333 149.894 250.555C150.194 250.773 150.575 250.882 151.037 250.882C151.502 250.882 151.852 250.796 152.087 250.623C152.321 250.447 152.438 250.2 152.438 249.881C152.438 249.308 151.984 249.021 151.076 249.021H150.09V247.82H150.92C151.353 247.82 151.678 247.741 151.896 247.581C152.118 247.422 152.228 247.212 152.228 246.951C152.228 246.691 152.121 246.487 151.906 246.341C151.691 246.194 151.375 246.121 150.959 246.121C150.532 246.121 150.182 246.22 149.909 246.419C149.636 246.618 149.432 246.875 149.299 247.19ZM155.236 253.509L154.884 252.83C155.044 252.781 155.202 252.69 155.358 252.557C155.517 252.426 155.623 252.278 155.675 252.112V252.039C155.665 252.036 155.649 252.033 155.626 252.029C155.604 252.026 155.587 252.023 155.578 252.02C155.19 251.906 154.996 251.652 154.996 251.258C154.996 251.027 155.071 250.838 155.221 250.691C155.374 250.545 155.579 250.472 155.836 250.472C156.126 250.472 156.356 250.564 156.525 250.75C156.694 250.936 156.779 251.186 156.779 251.502C156.779 251.779 156.733 252.034 156.642 252.269C156.551 252.503 156.427 252.7 156.271 252.859C156.118 253.019 155.955 253.152 155.783 253.26C155.61 253.367 155.428 253.45 155.236 253.509ZM159.273 247.459L158.082 247.049C158.232 246.368 158.569 245.835 159.093 245.447C159.62 245.057 160.237 244.861 160.943 244.861C161.747 244.861 162.371 245.07 162.813 245.486C163.259 245.9 163.482 246.461 163.482 247.171C163.482 247.734 163.29 248.253 162.906 248.729C162.525 249.201 161.878 249.718 160.963 250.281L160.382 250.638H163.619V252H158.072V250.901L159.151 250.179C159.763 249.769 160.252 249.43 160.616 249.163C160.981 248.893 161.279 248.646 161.51 248.421C161.741 248.193 161.897 247.996 161.979 247.83C162.06 247.661 162.101 247.48 162.101 247.288C162.101 246.937 161.988 246.671 161.764 246.492C161.542 246.31 161.238 246.219 160.851 246.219C160.626 246.219 160.421 246.255 160.235 246.326C160.053 246.395 159.9 246.491 159.776 246.614C159.653 246.738 159.55 246.868 159.469 247.005C159.391 247.142 159.326 247.293 159.273 247.459Z" fill="black"/><rect x="108" y="257" width="15" height="14" rx="2" fill="#23DBB0"/><path d="M127.143 262.102L129.404 260.998H130.356V268H129.033V262.619L127.666 263.229L127.143 262.102ZM132.236 269.509L131.884 268.83C132.044 268.781 132.202 268.69 132.358 268.557C132.517 268.426 132.623 268.278 132.675 268.112V268.039C132.665 268.036 132.649 268.033 132.626 268.029C132.604 268.026 132.587 268.023 132.578 268.02C132.19 267.906 131.996 267.652 131.996 267.258C131.996 267.027 132.071 266.838 132.221 266.691C132.374 266.545 132.579 266.472 132.836 266.472C133.126 266.472 133.356 266.564 133.525 266.75C133.694 266.936 133.779 267.186 133.779 267.502C133.779 267.779 133.733 268.034 133.642 268.269C133.551 268.503 133.427 268.7 133.271 268.859C133.118 269.019 132.955 269.152 132.783 269.26C132.61 269.367 132.428 269.45 132.236 269.509ZM136.273 263.459L135.082 263.049C135.232 262.368 135.569 261.835 136.093 261.447C136.62 261.057 137.237 260.861 137.943 260.861C138.747 260.861 139.371 261.07 139.813 261.486C140.259 261.9 140.482 262.461 140.482 263.171C140.482 263.734 140.29 264.253 139.906 264.729C139.525 265.201 138.878 265.718 137.963 266.281L137.382 266.638H140.619V268H135.072V266.901L136.151 266.179C136.763 265.769 137.252 265.43 137.616 265.163C137.981 264.893 138.279 264.646 138.51 264.421C138.741 264.193 138.897 263.996 138.979 263.83C139.06 263.661 139.101 263.48 139.101 263.288C139.101 262.937 138.988 262.671 138.764 262.492C138.542 262.31 138.238 262.219 137.851 262.219C137.626 262.219 137.421 262.255 137.235 262.326C137.053 262.395 136.9 262.491 136.776 262.614C136.653 262.738 136.55 262.868 136.469 263.005C136.391 263.142 136.326 263.293 136.273 263.459Z" fill="black"/><path d="M11.3434 297.72L12.4029 298.101C12.136 298.726 11.7145 299.219 11.1383 299.58C10.5654 299.941 9.9127 300.122 9.18027 300.122C8.49343 300.122 7.87656 299.967 7.32969 299.658C6.78281 299.349 6.35638 298.919 6.05039 298.369C5.7444 297.816 5.59141 297.192 5.59141 296.499C5.59141 295.812 5.74603 295.194 6.05527 294.644C6.36777 294.09 6.80072 293.659 7.3541 293.35C7.91074 293.037 8.53574 292.881 9.2291 292.881C9.94525 292.881 10.5898 293.066 11.1627 293.438C11.7389 293.809 12.1344 294.297 12.3492 294.902L11.2896 295.278C10.8372 294.438 10.1503 294.019 9.2291 294.019C8.52923 294.019 7.95794 294.25 7.51524 294.712C7.07253 295.174 6.85117 295.77 6.85117 296.499C6.85117 297.218 7.07416 297.812 7.52012 298.281C7.96934 298.747 8.539 298.979 9.2291 298.979C9.69785 298.979 10.1161 298.869 10.484 298.647C10.8551 298.426 11.1415 298.117 11.3434 297.72ZM14.551 296.582L13.5891 296.26C13.7323 295.749 14.009 295.358 14.4191 295.088C14.8293 294.814 15.3469 294.678 15.9719 294.678C16.6978 294.678 17.2463 294.867 17.6174 295.244C17.9917 295.618 18.1789 296.17 18.1789 296.899V300H17.0412V299.131C16.911 299.421 16.6896 299.658 16.3771 299.844C16.0679 300.029 15.7049 300.122 15.2883 300.122C14.7284 300.122 14.2873 299.977 13.965 299.688C13.6428 299.395 13.4816 299.012 13.4816 298.54C13.4816 297.951 13.7648 297.52 14.3313 297.246C14.8977 296.973 15.8075 296.834 17.0607 296.831C17.0607 296.076 16.6848 295.698 15.9328 295.698C15.2036 295.698 14.743 295.993 14.551 296.582ZM15.5617 299.121C16.0109 299.121 16.3723 299.001 16.6457 298.76C16.9224 298.516 17.0607 298.198 17.0607 297.808V297.651C16.1883 297.651 15.5699 297.713 15.2053 297.837C14.8407 297.957 14.6584 298.169 14.6584 298.472C14.6584 298.674 14.7382 298.833 14.8977 298.95C15.0604 299.064 15.2818 299.121 15.5617 299.121ZM23.7254 300V297.871H21.0838V300H19.9656V294.8H21.0838V296.851H23.7254V294.8H24.8436V300H23.7254ZM26.723 300V294.8H27.8412V297.041L30.1117 294.8H31.5619L29.1107 297.168L31.6596 300H30.2387L28.2221 297.778L27.8412 298.169V300H26.723ZM32.4209 295.82V294.8H37.1523V295.82H35.3408V300H34.2178V295.82H32.4209ZM38.3141 297.72V296.719H41.0533V297.72H38.3141ZM47.9084 300V294.141H44.2902V300H43.0695V292.998H49.1291V300H47.9084ZM53.5232 300.122C52.6997 300.122 52.0356 299.87 51.5311 299.365C51.0265 298.861 50.7742 298.201 50.7742 297.388C50.7742 296.6 51.0281 295.952 51.5359 295.444C52.047 294.933 52.7127 294.678 53.533 294.678C53.9008 294.678 54.2459 294.738 54.5682 294.858C54.8904 294.979 55.1688 295.148 55.4031 295.366C55.6408 295.584 55.8263 295.856 55.9598 296.182C56.0965 296.504 56.1648 296.857 56.1648 297.241C56.1648 297.407 56.1551 297.59 56.1355 297.788H51.9412C51.9738 298.179 52.1382 298.496 52.4344 298.74C52.7339 298.981 53.1066 299.102 53.5525 299.102C54.2231 299.102 54.7065 298.841 55.0027 298.32L55.9646 298.638C55.7628 299.106 55.4503 299.471 55.0271 299.731C54.604 299.992 54.1027 300.122 53.5232 300.122ZM53.5135 295.698C53.0936 295.698 52.7404 295.806 52.4539 296.021C52.1707 296.235 52.0047 296.519 51.9559 296.87H55.0223C55.0092 296.532 54.8563 296.252 54.5633 296.03C54.2736 295.809 53.9236 295.698 53.5135 295.698ZM57.0092 295.82V294.8H61.7406V295.82H59.9291V300H58.8061V295.82H57.0092ZM65.2607 300.122C64.4372 300.122 63.7731 299.87 63.2686 299.365C62.764 298.861 62.5117 298.201 62.5117 297.388C62.5117 296.6 62.7656 295.952 63.2734 295.444C63.7845 294.933 64.4502 294.678 65.2705 294.678C65.6383 294.678 65.9834 294.738 66.3057 294.858C66.6279 294.979 66.9062 295.148 67.1406 295.366C67.3783 295.584 67.5638 295.856 67.6973 296.182C67.834 296.504 67.9023 296.857 67.9023 297.241C67.9023 297.407 67.8926 297.59 67.873 297.788H63.6787C63.7113 298.179 63.8757 298.496 64.1719 298.74C64.4714 298.981 64.8441 299.102 65.29 299.102C65.9606 299.102 66.444 298.841 66.7402 298.32L67.7021 298.638C67.5003 299.106 67.1878 299.471 66.7646 299.731C66.3415 299.992 65.8402 300.122 65.2607 300.122ZM65.251 295.698C64.8311 295.698 64.4779 295.806 64.1914 296.021C63.9082 296.235 63.7422 296.519 63.6934 296.87H66.7598C66.7467 296.532 66.5938 296.252 66.3008 296.03C66.0111 295.809 65.6611 295.698 65.251 295.698ZM72.3453 300.122C71.9254 300.122 71.5624 300.047 71.2564 299.897C70.9505 299.748 70.7063 299.546 70.524 299.292V302.002H69.4059V294.8H70.524V295.62C70.6966 295.33 70.9439 295.101 71.2662 294.932C71.5885 294.762 71.9612 294.678 72.3844 294.678C73.1201 294.678 73.7206 294.919 74.1861 295.4C74.6516 295.879 74.8844 296.525 74.8844 297.339C74.8844 298.172 74.6467 298.844 74.1715 299.355C73.6995 299.867 73.0908 300.122 72.3453 300.122ZM70.9781 298.672C71.2841 298.958 71.6699 299.102 72.1354 299.102C72.6008 299.102 72.9785 298.947 73.2682 298.638C73.5579 298.328 73.7027 297.909 73.7027 297.378C73.7027 296.86 73.5546 296.452 73.2584 296.152C72.9654 295.85 72.5878 295.698 72.1256 295.698C71.6438 295.698 71.2564 295.843 70.9635 296.133C70.6705 296.423 70.524 296.818 70.524 297.319V297.48C70.524 297.985 70.6754 298.382 70.9781 298.672ZM78.9855 300.122C78.0936 300.122 77.4019 299.839 76.9104 299.272C76.4188 298.703 76.173 297.905 76.173 296.88C76.173 295.757 76.2512 294.924 76.4074 294.38C76.5637 293.833 76.8387 293.433 77.2326 293.179C77.327 293.117 77.4247 293.063 77.5256 293.018C77.6298 292.972 77.7404 292.936 77.8576 292.91C77.9781 292.881 78.0822 292.858 78.1701 292.842C78.2613 292.822 78.3768 292.811 78.5168 292.808C78.6568 292.801 78.7609 292.798 78.8293 292.798C78.8977 292.795 79.0083 292.795 79.1613 292.798C79.3176 292.798 79.4185 292.798 79.4641 292.798C79.8026 292.798 80.0223 292.777 80.1232 292.734C80.2274 292.689 80.2844 292.594 80.2941 292.451H81.2658C81.2658 292.985 81.1519 293.351 80.924 293.55C80.6962 293.748 80.2762 293.848 79.6643 293.848C79.5829 293.848 79.4527 293.846 79.2736 293.843C79.0979 293.836 78.9611 293.835 78.8635 293.838C78.7691 293.838 78.6519 293.844 78.5119 293.857C78.3752 293.867 78.2499 293.892 78.1359 293.931C78.0253 293.97 77.9211 294.02 77.8234 294.082C77.6086 294.215 77.4572 294.416 77.3693 294.683C77.2847 294.946 77.2326 295.376 77.2131 295.972C77.4182 295.643 77.6949 295.389 78.0432 295.21C78.3915 295.031 78.7854 294.941 79.2248 294.941C79.9637 294.941 80.5546 295.169 80.9973 295.625C81.4432 296.081 81.6662 296.686 81.6662 297.441C81.6662 298.223 81.4156 298.866 80.9143 299.37C80.413 299.871 79.7701 300.122 78.9855 300.122ZM77.8137 298.628C78.1099 298.944 78.494 299.102 78.966 299.102C79.438 299.102 79.8091 298.958 80.0793 298.672C80.3495 298.385 80.4846 297.995 80.4846 297.5C80.4846 297.038 80.3462 296.667 80.0695 296.387C79.7961 296.104 79.4315 295.962 78.9758 295.962C78.5038 295.962 78.118 296.097 77.8186 296.367C77.5223 296.634 77.3742 296.979 77.3742 297.402C77.3742 297.904 77.5207 298.312 77.8137 298.628ZM83.8143 302.002L84.6639 299.878L82.3836 294.8H83.6922L85.2449 298.389L86.5731 294.8H87.7742L84.9861 302.002H83.8143ZM91.8852 300.122C91.4652 300.122 91.1023 300.047 90.7963 299.897C90.4903 299.748 90.2462 299.546 90.0639 299.292V302.002H88.9457V294.8H90.0639V295.62C90.2364 295.33 90.4838 295.101 90.8061 294.932C91.1283 294.762 91.501 294.678 91.9242 294.678C92.6599 294.678 93.2605 294.919 93.726 295.4C94.1915 295.879 94.4242 296.525 94.4242 297.339C94.4242 298.172 94.1866 298.844 93.7113 299.355C93.2393 299.867 92.6306 300.122 91.8852 300.122ZM90.518 298.672C90.824 298.958 91.2097 299.102 91.6752 299.102C92.1407 299.102 92.5183 298.947 92.808 298.638C93.0977 298.328 93.2426 297.909 93.2426 297.378C93.2426 296.86 93.0945 296.452 92.7982 296.152C92.5053 295.85 92.1277 295.698 91.6654 295.698C91.1837 295.698 90.7963 295.843 90.5033 296.133C90.2104 296.423 90.0639 296.818 90.0639 297.319V297.48C90.0639 297.985 90.2152 298.382 90.518 298.672ZM95.9668 300V294.8H99.8047V295.82H97.085V300H95.9668Z" fill="black"/><rect x="108" y="281" width="30" height="14" rx="2" fill="#0FA8E0"/><path d="M144.114 287.459L142.923 287.049C143.072 286.368 143.409 285.835 143.933 285.447C144.461 285.057 145.078 284.861 145.784 284.861C146.588 284.861 147.211 285.07 147.654 285.486C148.1 285.9 148.323 286.461 148.323 287.171C148.323 287.734 148.131 288.253 147.747 288.729C147.366 289.201 146.718 289.718 145.804 290.281L145.222 290.638H148.46V292H142.913V290.901L143.992 290.179C144.604 289.769 145.092 289.43 145.457 289.163C145.821 288.893 146.119 288.646 146.35 288.421C146.582 288.193 146.738 287.996 146.819 287.83C146.901 287.661 146.941 287.48 146.941 287.288C146.941 286.937 146.829 286.671 146.604 286.492C146.383 286.31 146.079 286.219 145.691 286.219C145.467 286.219 145.262 286.255 145.076 286.326C144.894 286.395 144.741 286.491 144.617 286.614C144.493 286.738 144.391 286.868 144.309 287.005C144.231 287.142 144.166 287.293 144.114 287.459ZM149.89 293.509L149.538 292.83C149.698 292.781 149.856 292.69 150.012 292.557C150.172 292.426 150.277 292.278 150.329 292.112V292.039C150.32 292.036 150.303 292.033 150.281 292.029C150.258 292.026 150.242 292.023 150.232 292.02C149.844 291.906 149.651 291.652 149.651 291.258C149.651 291.027 149.726 290.838 149.875 290.691C150.028 290.545 150.233 290.472 150.491 290.472C150.78 290.472 151.01 290.564 151.179 290.75C151.348 290.936 151.433 291.186 151.433 291.502C151.433 291.779 151.387 292.034 151.296 292.269C151.205 292.503 151.081 292.7 150.925 292.859C150.772 293.019 150.609 293.152 150.437 293.26C150.264 293.367 150.082 293.45 149.89 293.509ZM152.497 286.36V284.998H157.854V285.95L154.797 292H153.356L156.296 286.36H152.497Z" fill="black"/><rect x="108" y="297" width="10" height="14" rx="2" fill="#23DBB0"/><path d="M123.404 306.394C123.173 305.85 123.057 305.218 123.057 304.499C123.057 303.78 123.17 303.15 123.394 302.609C123.622 302.069 123.969 301.643 124.434 301.33C124.903 301.018 125.468 300.861 126.129 300.861C127.125 300.861 127.888 301.188 128.419 301.843C128.949 302.497 129.215 303.382 129.215 304.499C129.215 305.222 129.101 305.853 128.873 306.394C128.648 306.934 128.302 307.36 127.833 307.673C127.367 307.985 126.806 308.142 126.148 308.142C125.491 308.142 124.928 307.985 124.459 307.673C123.99 307.36 123.638 306.934 123.404 306.394ZM124.434 304.499C124.434 305.231 124.582 305.795 124.879 306.188C125.175 306.582 125.598 306.779 126.148 306.779C126.731 306.779 127.157 306.587 127.428 306.203C127.701 305.819 127.838 305.251 127.838 304.499C127.838 303.747 127.699 303.179 127.423 302.795C127.149 302.411 126.718 302.219 126.129 302.219C125.562 302.219 125.138 302.414 124.854 302.805C124.574 303.195 124.434 303.76 124.434 304.499ZM130.65 309.509L130.298 308.83C130.458 308.781 130.616 308.69 130.772 308.557C130.931 308.426 131.037 308.278 131.089 308.112V308.039C131.079 308.036 131.063 308.033 131.04 308.029C131.018 308.026 131.001 308.023 130.992 308.02C130.604 307.906 130.411 307.652 130.411 307.258C130.411 307.027 130.485 306.838 130.635 306.691C130.788 306.545 130.993 306.472 131.25 306.472C131.54 306.472 131.77 306.564 131.939 306.75C132.108 306.936 132.193 307.186 132.193 307.502C132.193 307.779 132.147 308.034 132.056 308.269C131.965 308.503 131.841 308.7 131.685 308.859C131.532 309.019 131.369 309.152 131.197 309.26C131.024 309.367 130.842 309.45 130.65 309.509ZM136.416 303.859H136.714C137.111 303.859 137.427 303.78 137.661 303.62C137.899 303.457 138.018 303.238 138.018 302.961C138.018 302.674 137.897 302.463 137.656 302.326C137.415 302.189 137.044 302.121 136.543 302.121C135.579 302.121 135.098 302.398 135.098 302.951C135.098 303.218 135.213 303.436 135.444 303.605C135.675 303.775 135.999 303.859 136.416 303.859ZM136.694 304.968H136.455C135.947 304.968 135.557 305.059 135.283 305.241C135.01 305.42 134.873 305.646 134.873 305.92C134.873 306.223 135.015 306.459 135.298 306.628C135.581 306.797 136.001 306.882 136.558 306.882C137.111 306.882 137.528 306.799 137.808 306.633C138.088 306.467 138.228 306.229 138.228 305.92C138.228 305.624 138.097 305.391 137.837 305.222C137.576 305.052 137.196 304.968 136.694 304.968ZM136.567 308.142C135.578 308.142 134.818 307.959 134.287 307.595C133.76 307.227 133.496 306.706 133.496 306.032C133.496 305.661 133.605 305.326 133.823 305.026C134.041 304.724 134.339 304.506 134.717 304.372C134.395 304.232 134.147 304.029 133.975 303.762C133.802 303.495 133.716 303.208 133.716 302.902C133.716 302.271 133.963 301.773 134.458 301.408C134.956 301.044 135.656 300.861 136.558 300.861C137.489 300.861 138.193 301.042 138.672 301.403C139.154 301.765 139.395 302.264 139.395 302.902C139.395 303.205 139.308 303.48 139.136 303.728C138.966 303.972 138.726 304.169 138.413 304.318C139.207 304.618 139.604 305.174 139.604 305.988C139.604 306.678 139.338 307.211 138.804 307.585C138.273 307.956 137.528 308.142 136.567 308.142Z" fill="black"/><rect x="108" y="324" width="8" height="8" rx="2" fill="#0FA8E0"/><path d="M120.242 333.25V330.862H120.994C121.264 330.39 121.471 329.772 121.614 329.007C121.761 328.239 121.834 327.369 121.834 326.399V324.998H126.775V330.862H127.654V333.25H126.492V332H121.404V333.25H120.242ZM122.991 326.141V326.399C122.991 327.304 122.926 328.16 122.796 328.968C122.666 329.775 122.488 330.407 122.264 330.862H125.555V326.141H122.991ZM131.331 332.122C130.507 332.122 129.843 331.87 129.338 331.365C128.834 330.861 128.582 330.201 128.582 329.388C128.582 328.6 128.836 327.952 129.343 327.444C129.854 326.933 130.52 326.678 131.34 326.678C131.708 326.678 132.053 326.738 132.376 326.858C132.698 326.979 132.976 327.148 133.211 327.366C133.448 327.584 133.634 327.856 133.767 328.182C133.904 328.504 133.972 328.857 133.972 329.241C133.972 329.407 133.962 329.59 133.943 329.788H129.749C129.781 330.179 129.946 330.496 130.242 330.74C130.541 330.981 130.914 331.102 131.36 331.102C132.031 331.102 132.514 330.841 132.81 330.32L133.772 330.638C133.57 331.106 133.258 331.471 132.835 331.731C132.411 331.992 131.91 332.122 131.331 332.122ZM131.321 327.698C130.901 327.698 130.548 327.806 130.261 328.021C129.978 328.235 129.812 328.519 129.763 328.87H132.83C132.817 328.532 132.664 328.252 132.371 328.03C132.081 327.809 131.731 327.698 131.321 327.698ZM139.236 332V329.871H136.594V332H135.476V326.8H136.594V328.851H139.236V326.8H140.354V332H139.236ZM142.233 332V326.8H143.351V328.328H144.543C144.943 328.328 145.287 328.377 145.573 328.475C145.863 328.569 146.087 328.702 146.247 328.875C146.406 329.048 146.522 329.238 146.594 329.446C146.665 329.655 146.701 329.889 146.701 330.149C146.701 330.41 146.662 330.647 146.584 330.862C146.506 331.074 146.382 331.268 146.213 331.443C146.047 331.619 145.816 331.756 145.519 331.854C145.223 331.951 144.873 332 144.47 332H142.233ZM144.411 329.349H143.351V330.979H144.401C144.795 330.979 145.08 330.911 145.256 330.774C145.431 330.638 145.519 330.433 145.519 330.159C145.519 329.619 145.15 329.349 144.411 329.349ZM148.151 332V326.8H151.989V327.82H149.269V332H148.151ZM154.312 332H153.326V326.8H154.444V330.301L157.262 326.8H158.263V332H157.145V328.499L154.312 332Z" fill="black"/><rect x="175" y="324" width="8" height="8" rx="2" fill="#23DBB0"/><path d="M190.292 332.122C190.083 332.122 189.87 332.101 189.652 332.059V330.892C189.903 330.95 190.096 330.979 190.233 330.979C190.383 330.979 190.505 330.929 190.599 330.828C190.694 330.724 190.811 330.517 190.951 330.208L187.831 324.998H189.31L191.561 328.958L193.441 324.998H194.701L191.923 330.779C191.682 331.284 191.444 331.634 191.21 331.829C190.975 332.024 190.669 332.122 190.292 332.122ZM198.988 332V327.82H196.468V332H195.35V326.8H200.106V332H198.988ZM202.698 328.582L201.736 328.26C201.88 327.749 202.156 327.358 202.566 327.088C202.977 326.814 203.494 326.678 204.119 326.678C204.845 326.678 205.394 326.867 205.765 327.244C206.139 327.618 206.326 328.17 206.326 328.899V332H205.188V331.131C205.058 331.421 204.837 331.658 204.524 331.844C204.215 332.029 203.852 332.122 203.436 332.122C202.876 332.122 202.435 331.977 202.112 331.688C201.79 331.395 201.629 331.012 201.629 330.54C201.629 329.951 201.912 329.52 202.479 329.246C203.045 328.973 203.955 328.834 205.208 328.831C205.208 328.076 204.832 327.698 204.08 327.698C203.351 327.698 202.89 327.993 202.698 328.582ZM203.709 331.121C204.158 331.121 204.52 331.001 204.793 330.76C205.07 330.516 205.208 330.198 205.208 329.808V329.651C204.336 329.651 203.717 329.713 203.353 329.837C202.988 329.957 202.806 330.169 202.806 330.472C202.806 330.674 202.885 330.833 203.045 330.95C203.208 331.064 203.429 331.121 203.709 331.121ZM208.113 332V326.8H209.231V329.041L211.502 326.8H212.952L210.501 329.168L213.049 332H211.629L209.612 329.778L209.231 330.169V332H208.113ZM213.728 329.388C213.728 328.59 213.987 327.939 214.504 327.435C215.025 326.93 215.699 326.678 216.526 326.678C217.359 326.678 218.039 326.933 218.567 327.444C219.094 327.952 219.358 328.6 219.358 329.388C219.358 330.182 219.092 330.836 218.562 331.351C218.034 331.865 217.356 332.122 216.526 332.122C215.705 332.122 215.033 331.87 214.509 331.365C213.988 330.857 213.728 330.198 213.728 329.388ZM214.909 329.402C214.909 329.904 215.059 330.312 215.359 330.628C215.658 330.944 216.05 331.102 216.535 331.102C217.03 331.102 217.427 330.949 217.727 330.643C218.026 330.337 218.176 329.923 218.176 329.402C218.176 328.891 218.02 328.479 217.707 328.167C217.398 327.854 217.004 327.698 216.526 327.698C216.054 327.698 215.666 327.853 215.363 328.162C215.061 328.471 214.909 328.885 214.909 329.402ZM220.895 332V326.8H223.303C224.025 326.8 224.553 326.904 224.885 327.112C225.217 327.321 225.383 327.667 225.383 328.152C225.383 328.403 225.309 328.626 225.163 328.821C225.02 329.013 224.826 329.153 224.582 329.241C224.898 329.316 225.143 329.466 225.319 329.69C225.495 329.912 225.583 330.172 225.583 330.472C225.583 330.963 225.404 331.341 225.046 331.604C224.688 331.868 224.167 332 223.483 332H220.895ZM223.395 329.822H222.013V331.038H223.312C223.674 331.038 223.945 330.988 224.128 330.887C224.31 330.786 224.401 330.626 224.401 330.408C224.401 330.203 224.32 330.055 224.157 329.964C223.994 329.869 223.74 329.822 223.395 329.822ZM223.205 327.762H222.013V328.899H223.434C223.675 328.899 223.862 328.851 223.996 328.753C224.133 328.655 224.201 328.51 224.201 328.318C224.201 328.104 224.118 327.957 223.952 327.879C223.786 327.801 223.537 327.762 223.205 327.762ZM227.155 332V326.8H228.273V329.041L230.543 326.8H231.994L229.542 329.168L232.091 332H230.67L228.654 329.778L228.273 330.169V332H227.155ZM234.312 332H233.326V326.8H234.444V330.301L237.262 326.8H238.263V332H237.145V328.499L234.312 332Z" fill="black"/></svg>